<?xml version="1.0" encoding="UTF-8"?>
<svg version="1.1" xmlns="http://www.w3.org/2000/svg" width="500" height="129">
<path d="M0 0 C1.38312378 -0.02114868 1.38312378 -0.02114868 2.79418945 -0.04272461 C11.63559465 0.01948889 19.96707097 1.68859737 26.9375 7.375 C26.9375 8.035 26.9375 8.695 26.9375 9.375 C27.82695312 9.75205078 27.82695312 9.75205078 28.734375 10.13671875 C31.22179641 11.53479071 32.471515 12.92118647 34.1875 15.1875 C34.96867187 16.18716797 34.96867187 16.18716797 35.765625 17.20703125 C37.16198731 19.79030153 37.02711528 21.48191999 36.9375 24.375 C33.50311785 25.71646494 30.06451583 27.04675905 26.625 28.375 C25.64853516 28.7565625 24.67207031 29.138125 23.66601562 29.53125 C22.72822266 29.8921875 21.79042969 30.253125 20.82421875 30.625 C19.96014404 30.96015625 19.09606934 31.2953125 18.20581055 31.640625 C15.9375 32.375 15.9375 32.375 12.9375 32.375 C11.69372423 30.90798243 10.45231827 29.43485071 9.31640625 27.8828125 C6.82783953 25.16160356 4.62561731 24.4532779 0.984375 24.0390625 C-6.16664152 23.95433482 -11.02598758 24.53740278 -17.0625 28.375 C-18.12597656 28.88353516 -18.12597656 28.88353516 -19.2109375 29.40234375 C-21.67834987 30.69851607 -22.01951075 31.8022932 -23.0625 34.375 C-23.578125 35.4475 -24.09375 36.52 -24.625 37.625 C-27.36949271 44.23993116 -27.65347147 49.65070286 -25.15234375 56.32421875 C-22.90213392 60.55848456 -19.60418963 62.86110346 -15.0625 64.375 C-7.47397727 65.05175422 -2.34905537 64.74825591 3.9375 60.375 C4.5975 60.375 5.2575 60.375 5.9375 60.375 C5.9375 59.715 5.9375 59.055 5.9375 58.375 C6.5975 58.375 7.2575 58.375 7.9375 58.375 C7.9375 57.715 7.9375 57.055 7.9375 56.375 C8.5975 56.375 9.2575 56.375 9.9375 56.375 C9.9375 55.715 9.9375 55.055 9.9375 54.375 C2.3475 54.375 -5.2425 54.375 -13.0625 54.375 C-14.407767 48.99393199 -12.78835633 45.9003854 -10.26245117 41.25732422 C-8.54244736 38.62935652 -7.12823161 36.79001131 -4.15283203 35.63134766 C0.61069052 34.74717988 5.39022604 34.98565831 10.20703125 35.24755859 C14.06285175 35.42752446 17.9079883 35.37219103 21.7668457 35.33544922 C25.82440964 35.30286948 29.8800226 35.33866438 33.9375 35.375 C34.46537109 34.21484375 34.46537109 34.21484375 35.00390625 33.03125 C38.1400757 26.41499696 41.35660536 20.26547468 46.9375 15.375 C47.5975 15.375 48.2575 15.375 48.9375 15.375 C48.9375 14.715 48.9375 14.055 48.9375 13.375 C49.5975 13.375 50.2575 13.375 50.9375 13.375 C50.9375 12.715 50.9375 12.055 50.9375 11.375 C61.03317482 2.84000921 72.44201009 0.19761831 85.3125 0.1875 C86.12460938 0.17525391 86.93671875 0.16300781 87.7734375 0.15039062 C95.01568121 0.13298139 101.40159052 1.12314719 107.75 4.875 C108.47832031 5.2978125 109.20664063 5.720625 109.95703125 6.15625 C111.64048832 7.19222358 113.29280175 8.2785345 114.9375 9.375 C114.9375 10.035 114.9375 10.695 114.9375 11.375 C115.5975 11.375 116.2575 11.375 116.9375 11.375 C116.9375 12.035 116.9375 12.695 116.9375 13.375 C117.5975 13.375 118.2575 13.375 118.9375 13.375 C119.73868392 14.72355767 120.52791608 16.07921743 121.3125 17.4375 C121.75335938 18.19160156 122.19421875 18.94570313 122.6484375 19.72265625 C127.76394642 30.2482034 127.50417857 42.94240847 123.8125 53.875 C118.27656397 67.48744326 118.27656397 67.48744326 112.75390625 70.609375 C112.15449219 70.86203125 111.55507812 71.1146875 110.9375 71.375 C110.9375 72.035 110.9375 72.695 110.9375 73.375 C110.2775 73.375 109.6175 73.375 108.9375 73.375 C108.9375 74.035 108.9375 74.695 108.9375 75.375 C108.2775 75.375 107.6175 75.375 106.9375 75.375 C106.9375 76.035 106.9375 76.695 106.9375 77.375 C94.38094815 87.50125149 78.37572535 88.74145893 62.9375 87.375 C57.11758496 86.35202206 52.10909517 84.23298681 46.9375 81.375 C46.9375 80.715 46.9375 80.055 46.9375 79.375 C46.0403125 78.97667969 46.0403125 78.97667969 45.125 78.5703125 C38.91830332 75.1787961 35.7626343 68.56856367 32.9375 62.375 C32.380625 63.07625 31.82375 63.7775 31.25 64.5 C30.486875 65.44875 29.72375 66.3975 28.9375 67.375 C28.50566406 67.92542969 28.07382813 68.47585937 27.62890625 69.04296875 C26.44333026 70.52405923 25.19379576 71.95340217 23.9375 73.375 C23.2775 73.375 22.6175 73.375 21.9375 73.375 C21.9375 74.035 21.9375 74.695 21.9375 75.375 C8.59920301 85.61136746 -5.98578758 88.92259037 -22.65625 87.08984375 C-31.88199994 85.41686445 -40.33327233 80.8434575 -46.0625 73.375 C-52.73203923 63.31747675 -54.1405071 51.81153397 -52.0703125 40.05859375 C-47.83455503 24.57673604 -38.69308047 12.93731457 -24.8046875 4.78125 C-16.67568048 0.61252845 -9.01360417 0.10129331 0 0 Z M60.9375 34.375 C57.27962472 39.78142005 56.31450901 44.65519728 57.33984375 51.0859375 C58.64783649 56.09563517 61.33502985 59.19019139 65.375 62.25 C70.94017145 65.44194191 76.7251318 65.29231247 82.9375 64.375 C89.79133026 62.24081691 95.20155539 58.54743023 98.9375 52.375 C102.00683752 46.38161905 103.91015745 41.06668757 101.90234375 34.44921875 C99.82084983 29.97442818 97.04593374 26.42745691 92.59765625 24.20703125 C80.46425293 20.41200202 69.04213453 25.13863722 60.9375 34.375 Z " fill="#039AC5" transform="translate(100.0625,18.625)"/>
<path d="M0 0 C0.33 -0.99 0.66 -1.98 1 -3 C5.62 -3 10.24 -3 15 -3 C16.33251693 -0.33496615 15.82829065 1.07651279 15.35083008 4.00952148 C15.18347855 5.05498642 15.01612701 6.10045135 14.84370422 7.17759705 C14.65422714 8.31395096 14.46475006 9.45030487 14.26953125 10.62109375 C13.98199226 12.37559593 13.98199226 12.37559593 13.68864441 14.1655426 C13.2791007 16.65022354 12.86609843 19.13433645 12.44995117 21.61791992 C11.82067321 25.38852649 11.20949651 29.16176205 10.59960938 32.93554688 C10.19902642 35.35174675 9.79736669 37.7677684 9.39453125 40.18359375 C9.12549736 41.8607975 9.12549736 41.8607975 8.85102844 43.57188416 C7.01547729 54.33619414 4.64571935 64.68306386 -4 72 C-13.48297034 78.61692048 -26.54925179 77.65251089 -37.4140625 75.765625 C-40.28899947 74.9144352 -42.50229465 73.6410916 -45 72 C-44.54554036 70.58208592 -44.08625056 69.16571954 -43.625 67.75 C-43.24214844 66.56664063 -43.24214844 66.56664063 -42.8515625 65.359375 C-42.04826333 63.13372042 -41.10288338 61.09068328 -40 59 C-38.37433394 59.47690204 -36.74948689 59.95659666 -35.125 60.4375 C-34.22007812 60.70433594 -33.31515625 60.97117187 -32.3828125 61.24609375 C-30 62 -30 62 -28 63 C-22.9462082 63.29728187 -18.7304661 62.85508475 -14 61 C-12.55876888 59.28497767 -12.55876888 59.28497767 -12 57 C-11.62875 55.9275 -11.2575 54.855 -10.875 53.75 C-10.441875 52.38875 -10.441875 52.38875 -10 51 C-10.825 51.48597656 -11.65 51.97195312 -12.5 52.47265625 C-16.44889138 54.19588898 -19.77217618 54.4812087 -24 54.4375 C-25.02867187 54.4674707 -25.02867187 54.4674707 -26.078125 54.49804688 C-31.19192563 54.49316729 -34.07165577 53.20022064 -38 50 C-43.27886806 42.71880267 -42.74251205 33.62689747 -42 25 C-40.05198556 14.6699577 -36.16860158 5.60787105 -27.375 -0.5 C-18.51186621 -6.09776871 -8.75744304 -5.28751278 0 0 Z M-22.3359375 17.015625 C-25.28433353 22.82877462 -25.96882843 28.56493962 -25 35 C-23.82322797 38.32783723 -23.82322797 38.32783723 -21 40 C-17.09783048 40.65871485 -13.60796147 40.49076023 -9.82421875 39.3359375 C-5.74924744 36.35169727 -5.75573981 29.69354199 -5 25 C-4.53092156 20.67004518 -4.20646667 16.35003919 -4 12 C-12.15629495 6.91925148 -17.11690716 9.14129852 -22.3359375 17.015625 Z " fill="#0592BA" transform="translate(402,42)"/>
<path d="M0 0 C4.661976 2.85894682 6.88541339 5.84374018 8.625 11.0625 C10.16141925 18.30950408 9.68778441 26.05166771 8.375 33.3125 C7.375 34.3125 7.375 34.3125 4.04858398 34.42602539 C2.57274444 34.42586629 1.09689931 34.42017314 -0.37890625 34.41015625 C-1.15435287 34.4087413 -1.9297995 34.40732635 -2.72874451 34.40586853 C-5.21503494 34.40025345 -7.7012366 34.38769846 -10.1875 34.375 C-11.86913933 34.36998694 -13.55078006 34.3654237 -15.23242188 34.36132812 C-19.36331566 34.35027913 -23.49414276 34.33300445 -27.625 34.3125 C-27.35642757 35.78102103 -27.07220273 37.24668627 -26.78125 38.7109375 C-26.62462891 39.52739746 -26.46800781 40.34385742 -26.30664062 41.18505859 C-25.78554444 43.58283907 -25.78554444 43.58283907 -23.125 44.9375 C-15.72682587 45.73016151 -10.21957685 44.76680216 -3.625 41.3125 C-1.375 41.3125 -1.375 41.3125 0.375 42.3125 C2.46742143 45.9742375 2.56824053 49.15782871 2.375 53.3125 C0.81648245 54.13261312 -0.74701716 54.94326213 -2.3125 55.75 C-3.61767578 56.42869141 -3.61767578 56.42869141 -4.94921875 57.12109375 C-12.98203465 60.69774901 -24.37161506 60.92444912 -32.5625 57.8125 C-33.573125 57.3175 -34.58375 56.8225 -35.625 56.3125 C-35.625 55.6525 -35.625 54.9925 -35.625 54.3125 C-36.223125 54.085625 -36.82125 53.85875 -37.4375 53.625 C-40.84477465 51.58063521 -42.24170215 48.84306605 -43.1953125 45.03515625 C-45.15502172 32.61772599 -43.29390455 20.96863319 -36.625 10.3125 C-28.28459558 -0.3469437 -12.89069048 -6.04327266 0 0 Z M-21.625 15.3125 C-21.625 15.9725 -21.625 16.6325 -21.625 17.3125 C-22.285 17.3125 -22.945 17.3125 -23.625 17.3125 C-23.625 18.6325 -23.625 19.9525 -23.625 21.3125 C-18.015 21.3125 -12.405 21.3125 -6.625 21.3125 C-6.73332435 13.79488191 -6.73332435 13.79488191 -9.625 11.3125 C-15.06863563 10.69623936 -17.78256413 11.35362667 -21.625 15.3125 Z " fill="#0493BB" transform="translate(458.625,39.6875)"/>
<path d="M0 0 C5.73375925 5.60634238 8.34656423 11.57248333 8.46777344 19.45800781 C8.4577832 20.21436523 8.44779297 20.97072266 8.4375 21.75 C8.43137695 22.53987305 8.42525391 23.32974609 8.41894531 24.14355469 C8.1273828 35.11079078 4.2972977 44.08217784 -3.6875 51.6875 C-11.83581682 58.4453701 -20.67161244 58.91973608 -31 58 C-36.72212982 56.64553359 -41.39340496 53.29513577 -44.75 48.5 C-48.66302114 40.67395772 -48.13364882 29.0544228 -45.9375 20.6875 C-42.49021689 11.17941217 -37.22705951 3.48082247 -28 -1 C-19.15752925 -4.51758096 -8.42621579 -4.59611771 0 0 Z M-23 12 C-23 12.66 -23 13.32 -23 14 C-23.66 14 -24.32 14 -25 14 C-25.6509259 15.24735567 -26.29551669 16.49801832 -26.9375 17.75 C-27.29714844 18.44609375 -27.65679687 19.1421875 -28.02734375 19.859375 C-30.89896611 26.17925072 -30.69001085 33.19617206 -30 40 C-28.30436644 43.61859416 -28.30436644 43.61859416 -25 45 C-20.78363051 45.267706 -18.51974182 45.22581373 -15.22265625 42.56640625 C-9.27365382 36.03559429 -8.11264915 28.62391798 -8 20 C-8.41219807 16.3818169 -9.27028259 13.78004275 -11.8125 11.0625 C-15.99274269 9.03209641 -19.09768957 9.68751975 -23 12 Z " fill="#0592BB" transform="translate(316,41)"/>
<path d="M0 0 C13.86 0 27.72 0 42 0 C44.17600573 4.35201146 41.69433711 11.50723047 41 16 C32.42 16 23.84 16 15 16 C14.34 21.28 13.68 26.56 13 32 C19.93 32 26.86 32 34 32 C33.34 37.28 32.68 42.56 32 48 C24.74 48 17.48 48 10 48 C9.71125 50.5575 9.4225 53.115 9.125 55.75 C6.74455041 76.25544959 6.74455041 76.25544959 5 78 C3.65732587 78.08631874 2.31025678 78.10706473 0.96484375 78.09765625 C0.15595703 78.09443359 -0.65292969 78.09121094 -1.48632812 78.08789062 C-2.33646484 78.07951172 -3.18660156 78.07113281 -4.0625 78.0625 C-4.91650391 78.05798828 -5.77050781 78.05347656 -6.65039062 78.04882812 C-8.76695663 78.03700373 -10.88348685 78.01906769 -13 78 C-7.3559429 40.64867653 -7.3559429 40.64867653 -4.25 22.6875 C-4.05188721 21.54128174 -3.85377441 20.39506348 -3.6496582 19.21411133 C-2.52419233 12.78486952 -1.28096233 6.40481167 0 0 Z " fill="#058EB6" transform="translate(236,20)"/>
<path d="M0 0 C-0.14213297 1.89611434 -0.28886907 3.79188394 -0.4375 5.6875 C-0.51871094 6.74324219 -0.59992188 7.79898438 -0.68359375 8.88671875 C-0.96451681 11.65086297 -1.40156852 14.28945741 -2 17 C-2.67546875 17.06058594 -3.3509375 17.12117188 -4.046875 17.18359375 C-4.93890625 17.26738281 -5.8309375 17.35117187 -6.75 17.4375 C-7.63171875 17.51871094 -8.5134375 17.59992187 -9.421875 17.68359375 C-11.69350452 17.96238465 -13.79851823 18.38790577 -16 19 C-16 19.66 -16 20.32 -16 21 C-16.99 21.66 -17.98 22.32 -19 23 C-21.97904171 31.89574955 -22.76971341 41.79448938 -23.99804688 51.06567383 C-24.17303711 52.37121216 -24.17303711 52.37121216 -24.3515625 53.703125 C-24.45291504 54.48333008 -24.55426758 55.26353516 -24.65869141 56.06738281 C-25 58 -25 58 -26 60 C-31.61 60 -37.22 60 -43 60 C-42.30721464 53.50101356 -41.48544854 47.03260589 -40.5625 40.5625 C-40.44068359 39.68529297 -40.31886719 38.80808594 -40.19335938 37.90429688 C-39.45207429 32.69225612 -38.55136197 27.54188519 -37.48852539 22.38598633 C-37.02815847 20.13752762 -36.5983005 17.88618066 -36.18359375 15.62890625 C-36.05919922 14.95279297 -35.93480469 14.27667969 -35.80664062 13.58007812 C-35.55557945 12.20787602 -35.30562048 10.8354719 -35.05664062 9.46289062 C-34.52026389 6.55634653 -33.93620454 3.80861363 -33 1 C-28.05 1 -23.1 1 -18 1 C-17.67 2.32 -17.34 3.64 -17 5 C-16.52691406 4.6390625 -16.05382812 4.278125 -15.56640625 3.90625 C-10.25720497 0.18049471 -6.42675047 -0.66945317 0 0 Z " fill="#0494BE" transform="translate(365,38)"/>
<path d="M0 0 C1.32 0.33 2.64 0.66 4 1 C3.67 1.66 3.34 2.32 3 3 C1.68 3 0.36 3 -1 3 C-0.67 4.32 -0.34 5.64 0 7 C0.66 7 1.32 7 2 7 C2.66 8.32 3.32 9.64 4 11 C3.34 11 2.68 11 2 11 C2 12.65 2 14.3 2 16 C1.01 15.67 0.02 15.34 -1 15 C-1.09087891 16.39412109 -1.09087891 16.39412109 -1.18359375 17.81640625 C-2.01581722 30.09490334 -2.01581722 30.09490334 -3 36 C-2.01 36.33 -1.02 36.66 0 37 C0 38.65 0 40.3 0 42 C0.82757813 41.75443359 0.82757813 41.75443359 1.671875 41.50390625 C4.26614007 40.94239586 6.59835411 40.90260992 9.25 40.9375 C10.14203125 40.94652344 11.0340625 40.95554688 11.953125 40.96484375 C12.62859375 40.97644531 13.3040625 40.98804688 14 41 C13.67 42.32 13.34 43.64 13 45 C12.195625 45.12375 11.39125 45.2475 10.5625 45.375 C9.716875 45.58125 8.87125 45.7875 8 46 C7.67 46.66 7.34 47.32 7 48 C6.34 48 5.68 48 5 48 C5 49.32 5 50.64 5 52 C-0.94 52.495 -0.94 52.495 -7 53 C-7 52.34 -7 51.68 -7 51 C-8.6396875 50.9071875 -8.6396875 50.9071875 -10.3125 50.8125 C-14 50 -14 50 -15.875 47.6875 C-20.12067842 37.54504599 -18.86763825 25.06106125 -15.2578125 14.92578125 C-13.36209499 10.51617749 -11.55299136 6.31987654 -8 3 C-5.10257615 1.96968863 -3.13380066 1.94596895 0 2 C0 1.34 0 0.68 0 0 Z " fill="#0493BC" transform="translate(378,42)"/>
<path d="M0 0 C2.0625 0.6875 2.0625 0.6875 4 2 C5.32474837 5.45551833 4.91764583 8.61962038 4.5625 12.25 C4.46066406 13.32765625 4.35882813 14.4053125 4.25390625 15.515625 C4.17011719 16.33546875 4.08632813 17.1553125 4 18 C3.34 18 2.68 18 2 18 C1.99742187 18.73605469 1.99484375 19.47210938 1.9921875 20.23046875 C1.68081387 28.08746334 1.68081387 28.08746334 -0.296875 30.73828125 C-1.875 32 -1.875 32 -5 34 C-5.67095703 34.77150391 -5.67095703 34.77150391 -6.35546875 35.55859375 C-8.60859427 37.53342348 -10.49486656 37.65125001 -13.4375 38.0625 C-17.07879665 38.58268524 -19.7420092 39.33196549 -23 41 C-25.25 40.625 -25.25 40.625 -27 40 C-27 40.66 -27 41.32 -27 42 C-18.18511929 46.06840648 -9.14021116 46.32371315 0 43 C0.66 43.66 1.32 44.32 2 45 C-6.32106703 48.44320015 -16.40699555 50.19704991 -25.0625 46.75 C-30.45784825 43.53574998 -34.50454807 40.46558563 -36.5625 34.3203125 C-38.26583475 25.28655496 -37.94604422 14.3792544 -34 6 C-33.03637758 4.64014354 -32.04436604 3.29887542 -31 2 C-31 3.98 -31 5.96 -31 8 C-27.98968256 8.93423645 -27.13349732 9.04449911 -24 8 C-23.01 8.33 -22.02 8.66 -21 9 C-21 10.32 -21 11.64 -21 13 C-20.34 13 -19.68 13 -19 13 C-19.06960938 14.77117187 -19.06960938 14.77117187 -19.140625 16.578125 C-19.17814949 18.13539134 -19.21454893 19.69268508 -19.25 21.25 C-19.28351563 22.02730469 -19.31703125 22.80460937 -19.3515625 23.60546875 C-19.41623442 27.38877611 -19.44160072 29.36635658 -17.23046875 32.5390625 C-14.39645101 34.3953193 -12.26148978 34.34604281 -8.96484375 33.73828125 C-4.58073795 32.09097311 -2.63422877 28.36359185 -0.75 24.3125 C1.13087392 16.00530687 1.89417183 8.78834366 -2 1 C-1.34 0.67 -0.68 0.34 0 0 Z " fill="#0592BA" transform="translate(306,51)"/>
<path d="M0 0 C0.33 -0.66 0.66 -1.32 1 -2 C1.495 0.475 1.495 0.475 2 3 C1.01 3 0.02 3 -1 3 C-2.97484727 8.57603936 -2.90406552 12.17379997 -2 18 C-2.33 18.33 -2.66 18.66 -3 19 C-3.23192865 20.51469448 -3.41215238 22.03754562 -3.5625 23.5625 C-3.64628906 24.38878906 -3.73007812 25.21507813 -3.81640625 26.06640625 C-3.90728516 27.02353516 -3.90728516 27.02353516 -4 28 C-4.66 28 -5.32 28 -6 28 C-5.67 22.72 -5.34 17.44 -5 12 C-9.64243757 9.67878122 -11.08799501 9.5602744 -16 11 C-20.3538738 14.6100457 -22.56501537 18.54705842 -24 24 C-24.23964886 27.43067526 -24.23964886 27.43067526 -24.125 30.875 C-24.10695313 32.02742188 -24.08890625 33.17984375 -24.0703125 34.3671875 C-24.04710937 35.23601562 -24.02390625 36.10484375 -24 37 C-24.99 36.67 -25.98 36.34 -27 36 C-27.20177072 28.64657821 -27.21211746 22.05112439 -25 15 C-24.34 15 -23.68 15 -23 15 C-22.855625 14.360625 -22.71125 13.72125 -22.5625 13.0625 C-22 11 -22 11 -21 10 C-21.33 9.01 -21.66 8.02 -22 7 C-22.99 7.33 -23.98 7.66 -25 8 C-25.33 7.01 -25.66 6.02 -26 5 C-25.67 4.34 -25.34 3.68 -25 3 C-23.68 3 -22.36 3 -21 3 C-21 2.34 -21 1.68 -21 1 C-21.99 0.67 -22.98 0.34 -24 0 C-24 0.66 -24 1.32 -24 2 C-26.31 2.33 -28.62 2.66 -31 3 C-22.99992004 -6.66676329 -9.87706549 -5.96351124 0 0 Z " fill="#088BB1" transform="translate(402,42)"/>
<path d="M0 0 C1.3125 2.5625 1.3125 2.5625 2 5 C0.6875 6.5 0.6875 6.5 -1 8 C-1.99 8 -2.98 8 -4 8 C-4.144375 8.5775 -4.28875 9.155 -4.4375 9.75 C-4.95833333 11.83333333 -5.47916667 13.91666667 -6 16 C-6.928125 16.144375 -7.85625 16.28875 -8.8125 16.4375 C-12.00725111 16.92100111 -12.00725111 16.92100111 -15 18 C-22.56971128 18.59102851 -28.99888737 17.97016899 -36 15 C-35.67 14.01 -35.34 13.02 -35 12 C-34.05125 12.04125 -33.1025 12.0825 -32.125 12.125 C-28.89755144 12.34973818 -28.89755144 12.34973818 -27 10 C-23.66496479 9.44708627 -20.33078059 9.10740418 -16.96875 8.7578125 C-13.90161982 8.32639802 -13.90161982 8.32639802 -12.6796875 6.03125 C-12.45539063 5.3609375 -12.23109375 4.690625 -12 4 C-8.5950558 -0.02402496 -5.17503783 -2.04277809 0 0 Z " fill="#0297BF" transform="translate(314,79)"/>
<path d="M0 0 C-0.66 1.98 -1.32 3.96 -2 6 C-16.19 6 -30.38 6 -45 6 C-44 2 -44 2 -43 0 C-37.51922847 -0.16780202 -32.03831026 -0.32834201 -26.55712891 -0.48217773 C-24.69281298 -0.53552266 -22.82855257 -0.59084602 -20.96435547 -0.64819336 C-18.28365039 -0.73031405 -15.60282573 -0.8053005 -12.921875 -0.87890625 C-12.08944275 -0.90594131 -11.2570105 -0.93297638 -10.39935303 -0.96083069 C-9.22859222 -0.99097511 -9.22859222 -0.99097511 -8.03417969 -1.02172852 C-7.00825714 -1.05170677 -7.00825714 -1.05170677 -5.96160889 -1.08229065 C-3.85733339 -0.99401505 -2.0208995 -0.57653538 0 0 Z " fill="#0D7D9D" transform="translate(47,54)"/>
<path d="M0 0 C0.33 0 0.66 0 1 0 C0.86145912 3.29201643 0.71292976 6.58350709 0.5625 9.875 C0.52318359 10.81214844 0.48386719 11.74929687 0.44335938 12.71484375 C0.40146484 13.61074219 0.35957031 14.50664063 0.31640625 15.4296875 C0.27974854 16.25710449 0.24309082 17.08452148 0.20532227 17.93701172 C0 20 0 20 -1 22 C-1.15599154 24.22721253 -1.27544759 26.45705199 -1.375 28.6875 C-1.71918696 34.17756416 -2.36670422 38.19137293 -5 43 C-0.38 43 4.24 43 9 43 C9 41.35 9 39.7 9 38 C8.34 38 7.68 38 7 38 C7.3765809 34.76140428 7.70553212 32.45009338 9.5078125 29.6953125 C11.28853022 26.47883285 11.42904789 24.21736579 11.5625 20.5625 C11.7406464 15.99007564 12.38763977 12.29315194 14 8 C14.66 8 15.32 8 16 8 C15.43755751 17.15423632 13.78940337 26.02559435 12 35 C11.78859375 36.07121094 11.5771875 37.14242187 11.359375 38.24609375 C10.91207659 40.49856072 10.45713119 42.74950796 10 45 C4.39 45 -1.22 45 -7 45 C-6.30721464 38.50101356 -5.48544854 32.03260589 -4.5625 25.5625 C-4.44068359 24.68529297 -4.31886719 23.80808594 -4.19335938 22.90429688 C-3.33751509 16.88678033 -2.23977565 10.94928436 -1 5 C-0.66543323 3.3335805 -0.33177443 1.66697769 0 0 Z " fill="#157492" transform="translate(329,53)"/>
<path d="M0 0 C1.20970459 0.00523682 2.41940918 0.01047363 3.66577148 0.01586914 C4.97094727 0.0190918 6.27612305 0.02231445 7.62084961 0.02563477 C9.00952213 0.03399138 10.39819401 0.04245634 11.78686523 0.05102539 C13.17944179 0.05603873 14.57202005 0.06060193 15.96459961 0.06469727 C19.38456394 0.07653105 22.80444367 0.09301659 26.22436523 0.11352539 C25.56436523 2.09352539 24.90436523 4.07352539 24.22436523 6.11352539 C14.32436523 6.11352539 4.42436523 6.11352539 -5.77563477 6.11352539 C-3.3856142 0.13847397 -3.3856142 0.13847397 0 0 Z " fill="#1A657A" transform="translate(24.775634765625,42.886474609375)"/>
<path d="M0 0 C4.48113245 1.03410749 6.58522527 3.16966767 9 7 C11.82275642 15.46826926 11.58118256 24.25469396 10 33 C9 34 9 34 5.67358398 34.11352539 C4.19774444 34.11336629 2.72189931 34.10767314 1.24609375 34.09765625 C0.47064713 34.0962413 -0.3047995 34.09482635 -1.10374451 34.09336853 C-3.59003494 34.08775345 -6.0762366 34.07519846 -8.5625 34.0625 C-10.24413933 34.05748694 -11.92578006 34.0529237 -13.60742188 34.04882812 C-17.73831566 34.03777913 -21.86914276 34.02050445 -26 34 C-25.67 36.31 -25.34 38.62 -25 41 C-25.66 41 -26.32 41 -27 41 C-27 38.03 -27 35.06 -27 32 C-15.45 32 -3.9 32 8 32 C8 24.41 8 16.82 8 9 C7.34 9 6.68 9 6 9 C5.62875 8.030625 5.2575 7.06125 4.875 6.0625 C3.28947638 2.68859031 3.28947638 2.68859031 -0.1875 2.125 C-1.115625 2.08375 -2.04375 2.0425 -3 2 C-2.01 1.34 -1.02 0.68 0 0 Z " fill="#186377" transform="translate(457,40)"/>
<path d="M0 0 C1.07349791 4.29399165 0.79682816 5.19495213 -1 9 C-0.0925 8.690625 0.815 8.38125 1.75 8.0625 C2.8225 7.711875 3.895 7.36125 5 7 C5.7425 6.7525 6.485 6.505 7.25 6.25 C7.8275 6.1675 8.405 6.085 9 6 C11 8 11 8 11 10 C14.61867559 11.2062252 17.92506251 11.10816918 21.6875 11.0625 C22.38939453 11.05798828 23.09128906 11.05347656 23.81445312 11.04882812 C25.54300538 11.03706927 27.27151365 11.01913454 29 11 C29 10.34 29 9.68 29 9 C29.99 9 30.98 9 32 9 C32.33 8.01 32.66 7.02 33 6 C34.31647119 5.30062468 35.65022151 4.63270867 37 4 C37.33 3.34 37.66 2.68 38 2 C40.475 2.495 40.475 2.495 43 3 C39.16786434 8.43916029 35.46844314 11.24414975 29 13 C18.17376651 14.65719999 6.44844021 15.20800043 -3 9 C-2.01 6.03 -1.02 3.06 0 0 Z " fill="#187C99" transform="translate(360,105)"/>
<path d="M0 0 C1.62566606 0.47690204 3.25051311 0.95659666 4.875 1.4375 C5.77992188 1.70433594 6.68484375 1.97117187 7.6171875 2.24609375 C10 3 10 3 12 4 C13.37342831 4.0689472 14.75002102 4.08467708 16.125 4.0625 C18.043125 4.0315625 18.043125 4.0315625 20 4 C20 4.99 20 5.98 20 7 C17.36 7.33 14.72 7.66 12 8 C12 8.66 12 9.32 12 10 C10.081875 10.185625 10.081875 10.185625 8.125 10.375 C4.65209064 10.69042399 4.65209064 10.69042399 2 13 C-0.625 13.125 -0.625 13.125 -3 13 C-2.17812739 8.61667943 -1.09845718 4.32059823 0 0 Z " fill="#0C8EB4" transform="translate(362,101)"/>
<path d="M0 0 C0.33 0 0.66 0 1 0 C0.99214478 0.93851807 0.99214478 0.93851807 0.98413086 1.89599609 C0.96338382 4.72232057 0.95034714 7.54862905 0.9375 10.375 C0.92912109 11.35984375 0.92074219 12.3446875 0.91210938 13.359375 C0.90727539 14.77089844 0.90727539 14.77089844 0.90234375 16.2109375 C0.89448853 17.51490479 0.89448853 17.51490479 0.88647461 18.84521484 C0.85877649 21.05049994 0.85877649 21.05049994 2 23 C1.34 23.99 0.68 24.98 0 26 C-0.33 25.67 -0.66 25.34 -1 25 C-1.06058594 25.62648438 -1.12117187 26.25296875 -1.18359375 26.8984375 C-1.26738281 27.71570313 -1.35117188 28.53296875 -1.4375 29.375 C-1.51871094 30.18710938 -1.59992188 30.99921875 -1.68359375 31.8359375 C-2 34 -2 34 -3 36 C3.93 36.495 3.93 36.495 11 37 C11.33 33.37 11.66 29.74 12 26 C12.66 26.33 13.32 26.66 14 27 C13.85962479 28.81293089 13.71255111 30.6253443 13.5625 32.4375 C13.48128906 33.44683594 13.40007812 34.45617187 13.31640625 35.49609375 C13 38 13 38 12 39 C6.06 39 0.12 39 -6 39 C-4.02 26.13 -2.04 13.26 0 0 Z " fill="#187794" transform="translate(229,59)"/>
<path d="M0 0 C7.26 0 14.52 0 22 0 C22 1.65 22 3.3 22 5 C14.41 5 6.82 5 -1 5 C-0.67 3.35 -0.34 1.7 0 0 Z " fill="#11809D" transform="translate(23,65)"/>
<path d="M0 0 C0.33 0 0.66 0 1 0 C0.67 3.3 0.34 6.6 0 10 C6.93 10 13.86 10 21 10 C20.67 13.96 20.34 17.92 20 22 C18.68 22 17.36 22 16 22 C15.29925156 18.846632 15 16.27275026 15 13 C11.53287889 11.84429296 8.4585044 11.67164707 4.8125 11.4375 C3.54019531 11.35371094 2.26789063 11.26992188 0.95703125 11.18359375 C-0.50669922 11.09271484 -0.50669922 11.09271484 -2 11 C-2.05399736 9.54207116 -2.09279177 8.08357288 -2.125 6.625 C-2.15980469 5.40683594 -2.15980469 5.40683594 -2.1953125 4.1640625 C-2 2 -2 2 0 0 Z " fill="#1484A7" transform="translate(249,42)"/>
<path d="M0 0 C0.66 0.33 1.32 0.66 2 1 C4.32873375 1.68255989 6.66182791 2.35050775 9 3 C9.6875 5.25 9.6875 5.25 10 8 C8.5625 10.3125 8.5625 10.3125 7 12 C6.34 11.67 5.68 11.34 5 11 C5.66 9.02 6.32 7.04 7 5 C6.17757813 5.48597656 5.35515625 5.97195312 4.5078125 6.47265625 C0.52112153 8.20850944 -2.85759684 8.48104493 -7.125 8.4375 C-7.82753906 8.45748047 -8.53007812 8.47746094 -9.25390625 8.49804688 C-12.8599321 8.49463853 -14.65722473 8.2788407 -17.4921875 5.97265625 C-18.23855469 4.99619141 -18.23855469 4.99619141 -19 4 C-16.525 4.495 -16.525 4.495 -14 5 C-14 5.66 -14 6.32 -14 7 C-13.319375 6.835 -12.63875 6.67 -11.9375 6.5 C-8.5835178 5.92910941 -5.39610195 5.93340977 -2 6 C-2 4.68 -2 3.36 -2 2 C-1.34 2 -0.68 2 0 2 C0 1.34 0 0.68 0 0 Z " fill="#137F9F" transform="translate(385,88)"/>
<path d="M0 0 C0.99842851 3.10622202 0.93947552 4.89973077 0 8 C-0.34060811 9.66519519 -0.67558396 11.33157466 -1 13 C-1.66 13 -2.32 13 -3 13 C-2.67 18.28 -2.34 23.56 -2 29 C-1.67 29 -1.34 29 -1 29 C-0.01 32.3 0.98 35.6 2 39 C1.01 39 0.02 39 -1 39 C-6.37027638 31.77078179 -5.7891509 21.97243746 -4.65625 13.3984375 C-3.67595844 8.64402345 -2.05497929 4.39018303 0 0 Z " fill="#146B84" transform="translate(420,53)"/>
<path d="M0 0 C2.0625 0.4375 2.0625 0.4375 4 1 C3.34 2.98 2.68 4.96 2 7 C-12.19 7 -26.38 7 -41 7 C-40 3 -40 3 -38 1 C-37.67 2.32 -37.34 3.64 -37 5 C-24.13 5 -11.26 5 2 5 C2 4.01 2 3.02 2 2 C1.01 1.67 0.02 1.34 -1 1 C-0.67 0.67 -0.34 0.34 0 0 Z " fill="#1B6781" transform="translate(43,53)"/>
<path d="M0 0 C2.0625 0.6875 2.0625 0.6875 4 2 C5.32474837 5.45551833 4.91764583 8.61962038 4.5625 12.25 C4.46066406 13.32765625 4.35882813 14.4053125 4.25390625 15.515625 C4.17011719 16.33546875 4.08632813 17.1553125 4 18 C3.34 18 2.68 18 2 18 C1.98582031 18.74765625 1.97164063 19.4953125 1.95703125 20.265625 C1.5626072 28.40994854 1.5626072 28.40994854 -1.5625 31.6875 C-2.366875 32.120625 -3.17125 32.55375 -4 33 C-4.66 32.67 -5.32 32.34 -6 32 C-5.38125 31.29875 -4.7625 30.5975 -4.125 29.875 C0.24245015 23.96609686 0.93736087 17.20349983 1 10 C0.48161975 6.76300334 -0.53015875 3.93968251 -2 1 C-1.34 0.67 -0.68 0.34 0 0 Z " fill="#149BC4" transform="translate(306,51)"/>
<path d="M0 0 C0.82886719 -0.00386719 1.65773437 -0.00773437 2.51171875 -0.01171875 C6.95452576 -0.00465546 11.12702514 0.23052787 15.5 1.125 C13.16785852 2.33128008 11.00357861 3.2904738 8.5 4.125 C8.17 4.785 7.84 5.445 7.5 6.125 C6.84 4.805 6.18 3.485 5.5 2.125 C4.18 2.455 2.86 2.785 1.5 3.125 C1.5 2.465 1.5 1.805 1.5 1.125 C0.06208484 1.26668137 -1.3753237 1.41351043 -2.8125 1.5625 C-3.61300781 1.64371094 -4.41351563 1.72492187 -5.23828125 1.80859375 C-7.66087179 2.07765693 -7.66087179 2.07765693 -10.5 3.125 C-11.304375 3.269375 -12.10875 3.41375 -12.9375 3.5625 C-15.48252956 4.00078933 -15.48252956 4.00078933 -17.5 5.1875 C-19.94989787 6.33588963 -21.82638335 6.27353426 -24.5 6.125 C-24.5 6.785 -24.5 7.445 -24.5 8.125 C-25.82 7.795 -27.14 7.465 -28.5 7.125 C-18.76162132 2.14706946 -10.98813345 -0.05126656 0 0 Z " fill="#178CAF" transform="translate(185.5,18.875)"/>
<path d="M0 0 C1.32 0 2.64 0 4 0 C4.33 0.99 4.66 1.98 5 3 C11.82799707 6.94110045 20.76996589 7.03015823 28.3203125 5.54296875 C29.90141359 5.09808403 31.45639021 4.56131265 33 4 C33.66 4.66 34.32 5.32 35 6 C26.67893297 9.44320015 16.59300445 11.19704991 7.9375 7.75 C5.03591184 6.02139429 2.4636297 4.3143188 0 2 C0 1.34 0 0.68 0 0 Z " fill="#147492" transform="translate(273,90)"/>
<path d="M0 0 C2.5 2.0625 2.5 2.0625 4 4 C4 4.66 4 5.32 4 6 C1 6 1 6 -1.1875 4.125 C-3 2 -3 2 -3 0 C-6.00099588 -0.10890711 -8.99796378 -0.18773555 -12 -0.25 C-12.83917969 -0.28351562 -13.67835938 -0.31703125 -14.54296875 -0.3515625 C-19.99638976 -0.43611166 -23.56607568 0.31358265 -28.2109375 3.23144531 C-30.50482161 4.21686387 -31.69034138 3.80761741 -34 3 C-23.92996311 -4.19288349 -11.21221042 -5.81373873 0 0 Z " fill="#1D829D" transform="translate(316,41)"/>
<path d="M0 0 C2 0.875 2 0.875 3.25 3.0625 C4.06408712 6.11532669 4.14631766 8.72917035 4 11.875 C2.71086513 12.54654933 1.41859796 13.21208859 0.125 13.875 C-0.59429687 14.24625 -1.31359375 14.6175 -2.0546875 15 C-4 15.875 -4 15.875 -6 15.875 C-6.33 14.885 -6.66 13.895 -7 12.875 C-5.02 12.875 -3.04 12.875 -1 12.875 C-1 11.885 -1 10.895 -1 9.875 C-0.01 9.875 0.98 9.875 2 9.875 C1.34 7.895 0.68 5.915 0 3.875 C-1.48011371 4.18298326 -2.95907325 4.496518 -4.4375 4.8125 C-5.67306641 5.07353516 -5.67306641 5.07353516 -6.93359375 5.33984375 C-8.97661204 5.68252994 -8.97661204 5.68252994 -10 6.875 C-11.66617115 6.91563832 -13.33388095 6.917721 -15 6.875 C-12.77486136 3.53729204 -12.16031095 3.33145551 -8.5 2.25 C-0.86859688 -0.05428731 -0.86859688 -0.05428731 0 0 Z " fill="#1A7593" transform="translate(457,81.125)"/>
<path d="M0 0 C0.66 0.99 1.32 1.98 2 3 C1.34 3 0.68 3 0 3 C0.185625 3.804375 0.37125 4.60875 0.5625 5.4375 C0.706875 6.283125 0.85125 7.12875 1 8 C0.67 8.33 0.34 8.66 0 9 C3.60409116 10.80204558 7.85888879 10.41012164 11.8359375 10.62109375 C15 11 15 11 19 13 C11.41 13 3.82 13 -4 13 C-5 9 -5 9 -4.00390625 6.640625 C-3.52824219 5.85171875 -3.05257812 5.0628125 -2.5625 4.25 C-2.08941406 3.45078125 -1.61632812 2.6515625 -1.12890625 1.828125 C-0.75636719 1.22484375 -0.38382812 0.6215625 0 0 Z " fill="#1599C5" transform="translate(91,60)"/>
<path d="M0 0 C4.48113245 1.03410749 6.58522527 3.16966767 9 7 C11.91382701 15.74148104 11.14511663 23.98220654 10 33 C9.67 33 9.34 33 9 33 C7.67084979 25.02509872 7.91198641 17.05813281 8 9 C7.34 9 6.68 9 6 9 C5.62875 8.030625 5.2575 7.06125 4.875 6.0625 C3.28947638 2.68859031 3.28947638 2.68859031 -0.1875 2.125 C-1.115625 2.08375 -2.04375 2.0425 -3 2 C-2.01 1.34 -1.02 0.68 0 0 Z " fill="#14718B" transform="translate(457,40)"/>
<path d="M0 0 C1.28583984 0.00451172 2.57167969 0.00902344 3.89648438 0.01367188 C7.03520653 0.02533999 10.17382728 0.04170985 13.3125 0.0625 C13.3125 0.7225 13.3125 1.3825 13.3125 2.0625 C8.00042752 2.80918723 2.9082861 3.18183785 -2.46875 3.16015625 C-3.16770386 3.1587413 -3.86665771 3.15732635 -4.58679199 3.15586853 C-6.78707429 3.1503367 -8.98724923 3.13779777 -11.1875 3.125 C-12.69270685 3.11997616 -14.19791532 3.11541482 -15.703125 3.11132812 C-19.36461735 3.10038977 -23.02604817 3.08317359 -26.6875 3.0625 C-26.3575 2.4025 -26.0275 1.7425 -25.6875 1.0625 C-17.38203917 -0.65858002 -8.43233458 -0.05682755 0 0 Z " fill="#1781A0" transform="translate(119.6875,53.9375)"/>
<path d="M0 0 C7.92 0 15.84 0 24 0 C24 0.99 24 1.98 24 3 C15.75 3 7.5 3 -1 3 C-0.67 2.01 -0.34 1.02 0 0 Z " fill="#0880A3" transform="translate(23,45)"/>
<path d="M0 0 C3.63 0 7.26 0 11 0 C12.52600135 3.05200269 11.57754994 5.42788086 11.00390625 8.7578125 C10.89151108 9.42086395 10.77911591 10.08391541 10.66331482 10.76705933 C10.30244258 12.88746278 9.93258472 15.00618701 9.5625 17.125 C9.31646455 18.56109649 9.07101441 19.99729339 8.82617188 21.43359375 C8.22423891 24.95692017 7.61423705 28.4787953 7 32 C6.67 32 6.34 32 6 32 C5.87931768 24.31655897 5.84251353 16.61654674 7 9 C7.33 8.67 7.66 8.34 8 8 C8.36760731 5.67182036 8.70241581 3.3381615 9 1 C6.03 1 3.06 1 0 1 C0 0.67 0 0.34 0 0 Z " fill="#1A7292" transform="translate(406,39)"/>
<path d="M0 0 C4.95 0 9.9 0 15 0 C15.33 1.32 15.66 2.64 16 4 C17.32 3.01 18.64 2.02 20 1 C20.66 1.33 21.32 1.66 22 2 C21.67 2.99 21.34 3.98 21 5 C20.01 5 19.02 5 18 5 C17.67 5.99 17.34 6.98 17 8 C15.68 8 14.36 8 13 8 C13.33 5.69 13.66 3.38 14 1 C7.565 1.495 7.565 1.495 1 2 C0.87625 3.794375 0.7525 5.58875 0.625 7.4375 C0.4140625 10.49609375 0.4140625 10.49609375 0 13 C-0.99 13.495 -0.99 13.495 -2 14 C-2.19607616 8.31379141 -1.89608907 5.6882672 0 0 Z " fill="#1C7895" transform="translate(332,39)"/>
<path d="M0 0 C1.72974441 0.00015918 3.45949355 0.0058569 5.18920898 0.01586914 C6.09783188 0.01728409 7.00645477 0.01869904 7.94261169 0.02015686 C10.85687494 0.02577346 13.77106254 0.03832874 16.68530273 0.05102539 C18.65600475 0.05603825 20.62670797 0.06060153 22.59741211 0.06469727 C27.43923832 0.07574828 32.28100768 0.09302401 37.12280273 0.11352539 C37.12280273 0.44352539 37.12280273 0.77352539 37.12280273 1.11352539 C23.92280273 1.11352539 10.72280273 1.11352539 -2.87719727 1.11352539 C-2.54719727 4.08352539 -2.21719727 7.05352539 -1.87719727 10.11352539 C-3.81469727 12.67602539 -3.81469727 12.67602539 -5.87719727 14.11352539 C-5.73690308 11.96732279 -5.58981563 9.82156321 -5.43969727 7.67602539 C-5.35848633 6.48106445 -5.27727539 5.28610352 -5.19360352 4.05493164 C-4.71823241 -0.36425899 -4.65414313 0.13627458 0 0 Z " fill="#1A87AA" transform="translate(239.877197265625,20.886474609375)"/>
<path d="M0 0 C2.475 0.99 2.475 0.99 5 2 C5 1.34 5 0.68 5 0 C5.66 0 6.32 0 7 0 C6.63223832 6.30267439 5.83374078 11.33251843 3 17 C2.855625 16.401875 2.71125 15.80375 2.5625 15.1875 C1.77106684 12.10970438 1.28457274 10.28457274 -1 8 C-0.96712417 5.27130593 -0.43602229 2.7033382 0 0 Z " fill="#0D85A8" transform="translate(402,89)"/>
<path d="M0 0 C1.53166168 4.08443115 0.63081652 7.79455657 0 12 C-0.66 12 -1.32 12 -2 12 C-1.89864746 12.59014893 -1.79729492 13.18029785 -1.69287109 13.78833008 C-1.24105202 16.4611108 -0.80784188 19.13658343 -0.375 21.8125 C-0.21515625 22.74126953 -0.0553125 23.67003906 0.109375 24.62695312 C0.25117187 25.51962891 0.39296875 26.41230469 0.5390625 27.33203125 C0.67521973 28.15421143 0.81137695 28.9763916 0.95166016 29.82348633 C1 32 1 32 -1 35 C-5.07651917 23.72666303 -4.2147881 13.41090626 -1 2 C-0.67 1.34 -0.34 0.68 0 0 Z " fill="#19829F" transform="translate(51,50)"/>
<path d="M0 0 C1.07349791 4.29399165 0.79682816 5.19495213 -1 9 C-0.0925 8.690625 0.815 8.38125 1.75 8.0625 C2.8225 7.711875 3.895 7.36125 5 7 C5.7425 6.7525 6.485 6.505 7.25 6.25 C7.8275 6.1675 8.405 6.085 9 6 C11 8 11 8 11 10 C11.99 10.66 12.98 11.32 14 12 C6.94354245 13.50276411 3.18604024 12.71162414 -3 9 C-2.01 6.03 -1.02 3.06 0 0 Z " fill="#0D7FA0" transform="translate(360,105)"/>
<path d="M0 0 C1.34977849 0.63270867 2.68352881 1.30062468 4 2 C4.66 2 5.32 2 6 2 C6.66 2.33 7.32 2.66 8 3 C1 10 1 10 -1.625 10.125 C-2.40875 10.08375 -3.1925 10.0425 -4 10 C-3.67558396 8.33157466 -3.34060811 6.66519519 -3 5 C-2.855625 4.2575 -2.71125 3.515 -2.5625 2.75 C-2.376875 2.1725 -2.19125 1.595 -2 1 C-1.34 0.67 -0.68 0.34 0 0 Z " fill="#0595BF" transform="translate(363,104)"/>
<path d="M0 0 C1.65 0 3.3 0 5 0 C3.14453125 2.44140625 3.14453125 2.44140625 1.2890625 4.8828125 C-1.68433102 9.7663861 -2.2401373 14.23327214 -2.125 19.875 C-2.10695313 21.02742188 -2.08890625 22.17984375 -2.0703125 23.3671875 C-2.04710937 24.23601562 -2.02390625 25.10484375 -2 26 C-2.99 25.67 -3.98 25.34 -5 25 C-5.20177072 17.64657821 -5.21211746 11.05112439 -3 4 C-2.34 4 -1.68 4 -1 4 C-0.67 2.68 -0.34 1.36 0 0 Z " fill="#177F9E" transform="translate(380,53)"/>
<path d="M0 0 C1.21042969 -0.00515625 2.42085938 -0.0103125 3.66796875 -0.015625 C6.8125 0.25 6.8125 0.25 9.8125 2.25 C8.72453125 2.25257812 7.6365625 2.25515625 6.515625 2.2578125 C-2.47771825 2.44040804 -9.0468182 3.34345818 -16.96484375 8.0703125 C-17.69832031 8.45960937 -18.43179687 8.84890625 -19.1875 9.25 C-19.8475 8.92 -20.5075 8.59 -21.1875 8.25 C-19.98739255 7.28138536 -18.77691756 6.3256115 -17.5625 5.375 C-16.88960938 4.84132813 -16.21671875 4.30765625 -15.5234375 3.7578125 C-10.52220345 0.52959119 -5.87052803 -0.02516839 0 0 Z " fill="#19718A" transform="translate(447.1875,37.75)"/>
<path d="M0 0 C0.95003906 0.15339844 1.90007812 0.30679688 2.87890625 0.46484375 C7.54961567 1.13208795 12.22798139 1.34403564 16.9375 1.5625 C17.81212891 1.60568359 18.68675781 1.64886719 19.58789062 1.69335938 C21.72511995 1.79846901 23.86254238 1.89963985 26 2 C26 1.34 26 0.68 26 0 C28.97 0.495 28.97 0.495 32 1 C24.83442723 5.77704851 14.24147961 4.7900002 6.01953125 3.55078125 C3.99768031 3.09755234 1.99492395 2.55997865 0 2 C0 1.34 0 0.68 0 0 Z " fill="#1D82A1" transform="translate(71,102)"/>
<path d="M0 0 C0.66 0 1.32 0 2 0 C0.6684224 5.91812267 -2.65421796 9.92926746 -7 14 C-9.2265625 15.234375 -9.2265625 15.234375 -11 16 C-11.48492623 9.57472739 -11.48492623 9.57472739 -9.3125 7 C-6.44360465 5.7593966 -4.94358324 6.10057179 -2 7 C-2 5.68 -2 4.36 -2 3 C-1.34 3 -0.68 3 0 3 C0 2.01 0 1.02 0 0 Z " fill="#0894B5" transform="translate(319,79)"/>
<path d="M0 0 C0.33 0 0.66 0 1 0 C0.97679687 1.10859375 0.95359375 2.2171875 0.9296875 3.359375 C0.91092423 4.82290992 0.89272463 6.28645214 0.875 7.75 C0.85824219 8.47960937 0.84148437 9.20921875 0.82421875 9.9609375 C0.78861697 13.87713341 0.96723858 16.6332389 3 20 C3.125 22.75 3.125 22.75 3 25 C3.99 25 4.98 25 6 25 C5.67 26.65 5.34 28.3 5 30 C4.34 30 3.68 30 3 30 C-0.88268997 24.40892645 -1.1614897 19.7340326 -1.125 13.0625 C-1.12886719 12.35931641 -1.13273437 11.65613281 -1.13671875 10.93164062 C-1.12965265 7.16187488 -0.903467 3.66406062 0 0 Z " fill="#187593" transform="translate(361,62)"/>
<path d="M0 0 C2.39614126 -0.05425226 4.79103853 -0.09379027 7.1875 -0.125 C8.19780273 -0.15013672 8.19780273 -0.15013672 9.22851562 -0.17578125 C13.28807807 -0.21538674 16.34998815 0.19979998 20 2 C19.67 2.66 19.34 3.32 19 4 C18.47148438 3.84015625 17.94296875 3.6803125 17.3984375 3.515625 C11.1338952 2.16885043 4.24451199 2.08697817 -1.6875 4.5 C-2.450625 4.995 -3.21375 5.49 -4 6 C-4.66 6 -5.32 6 -6 6 C-5.34 4.68 -4.68 3.36 -4 2 C-2.68 2 -1.36 2 0 2 C0 1.34 0 0.68 0 0 Z " fill="#1B7FA0" transform="translate(89,40)"/>
<path d="M0 0 C2.68156041 5.36312082 3.18246829 9.36290126 3.1875 15.25 C3.19974609 15.98863281 3.21199219 16.72726563 3.22460938 17.48828125 C3.23752662 22.3709987 2.55032324 26.36741357 1 31 C0.67 31 0.34 31 0 31 C0 20.77 0 10.54 0 0 Z " fill="#1C81A0" transform="translate(223,41)"/>
<path d="M0 0 C7.26 0 14.52 0 22 0 C22 1.65 22 3.3 22 5 C21.67 3.68 21.34 2.36 21 1 C11.595 1.495 11.595 1.495 2 2 C1.67 2.66 1.34 3.32 1 4 C6.94 4 12.88 4 19 4 C19 4.33 19 4.66 19 5 C12.4 5 5.8 5 -1 5 C-0.67 3.35 -0.34 1.7 0 0 Z " fill="#0F4352" transform="translate(23,65)"/>
<path d="M0 0 C0.33 0 0.66 0 1 0 C1 3.3 1 6.6 1 10 C-4.61 10 -10.22 10 -16 10 C-15.67 7.69 -15.34 5.38 -15 3 C-14.34 2.67 -13.68 2.34 -13 2 C-13.33 3.98 -13.66 5.96 -14 8 C-9.38 8 -4.76 8 0 8 C0 5.36 0 2.72 0 0 Z " fill="#217C99" transform="translate(338,88)"/>
<path d="M0 0 C0.7425 1.0828125 0.7425 1.0828125 1.5 2.1875 C6.29244534 7.57900101 10.75659986 10.15061916 18 10.8125 C19.6657346 10.89623938 21.33250273 10.96628222 23 11 C23 11.33 23 11.66 23 12 C20.9399629 12.25034126 18.87672534 12.47443346 16.8125 12.6875 C15.08966797 12.87892578 15.08966797 12.87892578 13.33203125 13.07421875 C9.58171717 12.99068303 7.9428007 12.26493436 5 10 C4.67 9.34 4.34 8.68 4 8 C1.97536745 7.34786708 1.97536745 7.34786708 0 7 C0 4.69 0 2.38 0 0 Z " fill="#157595" transform="translate(158,72)"/>
<path d="M0 0 C0.99 0.495 0.99 0.495 2 1 C1.01 1.495 1.01 1.495 0 2 C0 1.34 0 0.68 0 0 Z M-13 2 C-8.71 2 -4.42 2 0 2 C1.11403913 5.34211739 1.61140641 8.50265772 2 12 C1.67 12.33 1.34 12.66 1 13 C0.76807135 14.51469448 0.58784762 16.03754562 0.4375 17.5625 C0.35371094 18.38878906 0.26992188 19.21507813 0.18359375 20.06640625 C0.12300781 20.70449219 0.06242187 21.34257813 0 22 C-0.66 22 -1.32 22 -2 22 C-1.67 16.72 -1.34 11.44 -1 6 C-4.74368742 4.12815629 -5.8400791 3.76000233 -9.75 3.875 C-10.94882812 3.90207031 -10.94882812 3.90207031 -12.171875 3.9296875 C-13.07679688 3.96449219 -13.07679688 3.96449219 -14 4 C-13.67 3.34 -13.34 2.68 -13 2 Z " fill="#137791" transform="translate(398,48)"/>
<path d="M0 0 C1.22589844 0.01353516 1.22589844 0.01353516 2.4765625 0.02734375 C3.41628906 0.04474609 3.41628906 0.04474609 4.375 0.0625 C4.23286703 1.95861434 4.08613093 3.85438394 3.9375 5.75 C3.85628906 6.80574219 3.77507812 7.86148438 3.69140625 8.94921875 C3.41048319 11.71336297 2.97343148 14.35195741 2.375 17.0625 C0.395 17.0625 -1.585 17.0625 -3.625 17.0625 C-3.625 16.7325 -3.625 16.4025 -3.625 16.0625 C-1.975 16.0625 -0.325 16.0625 1.375 16.0625 C1.189375 15.093125 1.00375 14.12375 0.8125 13.125 C0.668125 12.114375 0.52375 11.10375 0.375 10.0625 C0.705 9.7325 1.035 9.4025 1.375 9.0625 C1.74260731 6.73432036 2.07741581 4.4006615 2.375 2.0625 C0.704375 2.371875 0.704375 2.371875 -1 2.6875 C-2.19625 2.81125 -3.3925 2.935 -4.625 3.0625 C-5.285 2.4025 -5.945 1.7425 -6.625 1.0625 C-4.21954362 -0.14022819 -2.67503047 -0.03821472 0 0 Z " fill="#1C738A" transform="translate(360.625,37.9375)"/>
<path d="M0 0 C0 0.99 0 1.98 0 3 C-0.66 3 -1.32 3 -2 3 C-2.09667969 3.59425781 -2.19335938 4.18851563 -2.29296875 4.80078125 C-3.14685266 7.45678478 -4.18480122 8.41517703 -6.3125 10.1875 C-7.20388672 10.95126953 -7.20388672 10.95126953 -8.11328125 11.73046875 C-10.09091784 13.0611766 -11.67100075 13.57327387 -14 14 C-12.12050295 10.42895561 -10.82946843 8.45255699 -7 7 C-7 6.34 -7 5.68 -7 5 C-6.34 5 -5.68 5 -5 5 C-5 4.34 -5 3.68 -5 3 C-2.5 1.375 -2.5 1.375 0 0 Z " fill="#14768F" transform="translate(156,27)"/>
<path d="M0 0 C0.33 0 0.66 0 1 0 C1.36828821 4.5422212 1.36828821 4.5422212 -0.25390625 6.55859375 C-4.0041949 9.65446962 -8.76077158 11.03039677 -13.58984375 10.96484375 C-15.737166 10.72399086 -17.87141513 10.37165767 -20 10 C-20 9.67 -20 9.34 -20 9 C-19.14728516 8.96132812 -19.14728516 8.96132812 -18.27734375 8.921875 C-12.43683251 8.49285581 -8.92940606 7.11860383 -4 4 C-3.34 4 -2.68 4 -2 4 C-2 3.34 -2 2.68 -2 2 C-1.34 2 -0.68 2 0 2 C0 1.34 0 0.68 0 0 Z " fill="#147793" transform="translate(108,75)"/>
<path d="M0 0 C0.1968999 2.35371114 0.38270974 4.7074695 0.5625 7.0625 C0.66691406 8.37347656 0.77132812 9.68445313 0.87890625 11.03515625 C0.99765619 14.92325897 0.66866216 18.19110223 0 22 C-0.66 22 -1.32 22 -2 22 C-2 22.66 -2 23.32 -2 24 C-2.66 24 -3.32 24 -4 24 C-3.76023438 23.31035156 -3.52046875 22.62070313 -3.2734375 21.91015625 C-1.16520295 15.22796933 -0.73083785 10.64145019 -3 4 C-3.33 3.01 -3.66 2.02 -4 1 C-1 0 -1 0 0 0 Z " fill="#1E809B" transform="translate(203,47)"/>
<path d="M0 0 C0.33 0 0.66 0 1 0 C1.33 2.31 1.66 4.62 2 7 C1.4328125 7.11085938 0.865625 7.22171875 0.28125 7.3359375 C-3.08807018 8.31673276 -5.81408109 10.19982424 -8.78125 12.0390625 C-11.36233411 13.15692639 -12.41539999 12.97509909 -15 12 C-13.3893266 10.92621773 -11.76837917 9.86445188 -10.09765625 8.88671875 C-5.84420189 6.38036464 -2.91559598 4.08183437 0 0 Z " fill="#0E82A3" transform="translate(198,71)"/>
<path d="M0 0 C0 0.33 0 0.66 0 1 C-8.58 1.33 -17.16 1.66 -26 2 C-26 2.99 -26 3.98 -26 5 C-28.64 5 -31.28 5 -34 5 C-33 3 -33 3 -31.26953125 2.1484375 C-21.11376008 -1.04845072 -10.52260706 -0.2715242 0 0 Z " fill="#278DAC" transform="translate(111,19)"/>
<path d="M0 0 C0 0.33 0 0.66 0 1 C-4.21964946 2.01629322 -8.22873996 2.16598183 -12.5625 2.1875 C-13.86316406 2.20167969 -15.16382813 2.21585937 -16.50390625 2.23046875 C-19.68701826 2.02063232 -21.36406237 1.69692677 -24 0 C-21.1253509 -0.19586184 -18.25061717 -0.38193799 -15.375 -0.5625 C-14.16263672 -0.64661133 -14.16263672 -0.64661133 -12.92578125 -0.73242188 C-8.43837484 -1.00604422 -4.43137501 -0.96801881 0 0 Z " fill="#136B85" transform="translate(451,97)"/>
<path d="M0 0 C0.33 0 0.66 0 1 0 C1.33 3.96 1.66 7.92 2 12 C2.33 12 2.66 12 3 12 C3.99 15.3 4.98 18.6 6 22 C5.01 22 4.02 22 3 22 C-0.67491357 17.72545019 -0.36156176 13.51200459 -0.1875 8.1875 C-0.17396484 7.39923828 -0.16042969 6.61097656 -0.14648438 5.79882812 C-0.11133456 3.86558831 -0.05753361 1.93270318 0 0 Z " fill="#1A96B9" transform="translate(416,70)"/>
<path d="M0 0 C1.32 0 2.64 0 4 0 C4 0.99 4 1.98 4 3 C3.34 3 2.68 3 2 3 C2 4.32 2 5.64 2 7 C7.61 7 13.22 7 19 7 C19 7.33 19 7.66 19 8 C12.4 8.33 5.8 8.66 -1 9 C-1 1 -1 1 0 0 Z " fill="#12748D" transform="translate(433,54)"/>
<path d="M0 0 C0.33 0 0.66 0 1 0 C0.67 3.3 0.34 6.6 0 10 C5.61 10 11.22 10 17 10 C17 10.33 17 10.66 17 11 C10.73 11 4.46 11 -2 11 C-2 2 -2 2 0 0 Z " fill="#10556B" transform="translate(249,42)"/>
<path d="M0 0 C2.15377564 2.62198774 3.40072174 4.64404172 4 8 C4.66 8 5.32 8 6 8 C8.36214538 10.64846603 9.87172132 12.61516396 11 16 C5.59265805 13.62404672 2.21787432 9.38279757 -0.4375 4.1875 C-1 2 -1 2 0 0 Z " fill="#177991" transform="translate(52,83)"/>
<path d="M0 0 C-2.8514643 1.9009762 -5.29710476 2.96265899 -8.5 4.125 C-9.4590625 4.47820313 -10.418125 4.83140625 -11.40625 5.1953125 C-14 6 -14 6 -17 6 C-17.66 4.68 -18.32 3.36 -19 2 C-16.69 2.33 -14.38 2.66 -12 3 C-12 2.34 -12 1.68 -12 1 C-7.93631321 0.22596442 -4.13574827 -0.0984702 0 0 Z " fill="#19708B" transform="translate(130,45)"/>
<path d="M0 0 C-0.33 0.99 -0.66 1.98 -1 3 C-2.0725 3.12375 -3.145 3.2475 -4.25 3.375 C-7.82385483 3.78173316 -7.82385483 3.78173316 -10.125 5.0625 C-12.50818085 6.25409043 -14.37227096 6.14598495 -17 6 C-17 6.66 -17 7.32 -17 8 C-18.32 7.67 -19.64 7.34 -21 7 C-7.30582524 0 -7.30582524 0 0 0 Z " fill="#156B8B" transform="translate(178,19)"/>
<path d="M0 0 C0.33 0.99 0.66 1.98 1 3 C1.66 3 2.32 3 3 3 C3.33 3.66 3.66 4.32 4 5 C4.66 5.33 5.32 5.66 6 6 C5.67 7.32 5.34 8.64 5 10 C5.66 10 6.32 10 7 10 C6.34 11.32 5.68 12.64 5 14 C2.69 9.71 0.38 5.42 -2 1 C-1.34 0.67 -0.68 0.34 0 0 Z " fill="#117F9F" transform="translate(134,78)"/>
<path d="M0 0 C0.66 1.32 1.32 2.64 2 4 C3.01320313 3.98839844 4.02640625 3.97679687 5.0703125 3.96484375 C6.42187314 3.95545791 7.7734358 3.94635857 9.125 3.9375 C10.12273438 3.92493164 10.12273438 3.92493164 11.140625 3.91210938 C15.20681354 3.89217708 19.0120092 4.21109839 23 5 C23 5.33 23 5.66 23 6 C14.75 6 6.5 6 -2 6 C-1 2 -1 2 0 0 Z " fill="#175368" transform="translate(4,54)"/>
<path d="M0 0 C3.93846154 3.32307692 3.93846154 3.32307692 4.25 6.75 C4.1675 7.4925 4.085 8.235 4 9 C2.02 9.33 0.04 9.66 -2 10 C-1.49396008 7.83125748 -1.00016187 6.00032373 0 4 C0 2.68 0 1.36 0 0 Z " fill="#137490" transform="translate(133,34)"/>
<path d="M0 0 C0.33 0 0.66 0 1 0 C1.02725341 1.7290774 1.04650987 3.45828176 1.0625 5.1875 C1.07410156 6.15042969 1.08570313 7.11335938 1.09765625 8.10546875 C1.00341944 10.89864791 0.77252805 13.31454534 0 16 C-2.5625 18.3125 -2.5625 18.3125 -5 20 C-5.66 19.67 -6.32 19.34 -7 19 C-6.38125 18.29875 -5.7625 17.5975 -5.125 16.875 C-1.25903939 11.6445827 -0.6517802 6.30054191 0 0 Z " fill="#176A82" transform="translate(307,64)"/>
<path d="M0 0 C1.53166168 4.08443115 0.63081652 7.79455657 0 12 C-0.66 12 -1.32 12 -2 12 C-2.33 14.31 -2.66 16.62 -3 19 C-4.2903184 15.12904481 -3.51801396 12.8987133 -2.625 8.9375 C-2.34914062 7.68839844 -2.07328125 6.43929687 -1.7890625 5.15234375 C-1 2 -1 2 0 0 Z " fill="#196882" transform="translate(51,50)"/>
<path d="M0 0 C4.09614769 0.86649278 6.47535725 1.46190487 9.4375 4.5 C11 7 11 7 11 9 C9.68 8.67 8.36 8.34 7 8 C7 7.34 7 6.68 7 6 C6.401875 5.7525 5.80375 5.505 5.1875 5.25 C2.71352479 3.83629988 1.56629745 2.34944617 0 0 Z " fill="#137390" transform="translate(140,92)"/>
<path d="M0 0 C0.33 0.66 0.66 1.32 1 2 C1.66 2 2.32 2 3 2 C3 2.66 3 3.32 3 4 C2.34 4 1.68 4 1 4 C1 4.66 1 5.32 1 6 C-0.98 6.99 -2.96 7.98 -5 9 C-5 7.35 -5 5.7 -5 4 C-3.68 4 -2.36 4 -1 4 C-0.67 2.68 -0.34 1.36 0 0 Z " fill="#107E9C" transform="translate(206,90)"/>
<path d="M0 0 C1.65 0 3.3 0 5 0 C3.824375 1.546875 3.824375 1.546875 2.625 3.125 C0.35603148 6.28098738 -0.98535871 9.21815519 -2 13 C-3.06546953 9.8035914 -3.07427838 7.34252724 -3 4 C-2.34 4 -1.68 4 -1 4 C-0.67 2.68 -0.34 1.36 0 0 Z " fill="#0D6175" transform="translate(380,53)"/>
<path d="M0 0 C3.63 0 7.26 0 11 0 C12.4552777 2.9105554 11.63516661 4.95849052 11.0625 8.125 C10.86785156 9.22070312 10.67320312 10.31640625 10.47265625 11.4453125 C10.31667969 12.28835937 10.16070312 13.13140625 10 14 C9.67 14 9.34 14 9 14 C9 9.71 9 5.42 9 1 C6.03 1 3.06 1 0 1 C0 0.67 0 0.34 0 0 Z " fill="#165C73" transform="translate(406,39)"/>
<path d="M0 0 C6.41551405 0.95519876 10.423787 2.3064482 15 7 C15 7.66 15 8.32 15 9 C12 9 12 9 9.8125 7.125 C8 5 8 5 8 3 C5.36 2.34 2.72 1.68 0 1 C0 0.67 0 0.34 0 0 Z " fill="#145D74" transform="translate(305,38)"/>
<path d="M0 0 C0.66 0 1.32 0 2 0 C1.97679687 1.18078125 1.95359375 2.3615625 1.9296875 3.578125 C1.91092503 5.13541033 1.89272534 6.69270252 1.875 8.25 C1.85824219 9.02730469 1.84148437 9.80460937 1.82421875 10.60546875 C1.74031699 16.08306936 1.74031699 16.08306936 4 21 C2.68 20.67 1.36 20.34 0 20 C0 13.4 0 6.8 0 0 Z " fill="#176A85" transform="translate(285,64)"/>
<path d="M0 0 C0.66 0.99 1.32 1.98 2 3 C1.01 3.495 1.01 3.495 0 4 C-0.65213292 6.02463255 -0.65213292 6.02463255 -1 8 C-1.66 8 -2.32 8 -3 8 C-2.24849977 11.27773504 -2.24849977 11.27773504 1 13 C-0.65 13 -2.3 13 -4 13 C-5.0169313 10.34501768 -5.13022151 9.30844625 -4.00390625 6.640625 C-3.52824219 5.85171875 -3.05257812 5.0628125 -2.5625 4.25 C-2.08941406 3.45078125 -1.61632812 2.6515625 -1.12890625 1.828125 C-0.75636719 1.22484375 -0.38382812 0.6215625 0 0 Z " fill="#186A85" transform="translate(91,60)"/>
<path d="M0 0 C2.39614126 -0.05425226 4.79103853 -0.09379027 7.1875 -0.125 C8.19780273 -0.15013672 8.19780273 -0.15013672 9.22851562 -0.17578125 C13.28807807 -0.21538674 16.34998815 0.19979998 20 2 C19.34 2.66 18.68 3.32 18 4 C17.31550781 3.67257813 16.63101563 3.34515625 15.92578125 3.0078125 C12.51087941 1.83151788 9.78968716 1.80222854 6.1875 1.875 C5.02605469 1.89304688 3.86460937 1.91109375 2.66796875 1.9296875 C1.34732422 1.96449219 1.34732422 1.96449219 0 2 C0 1.34 0 0.68 0 0 Z " fill="#1C7A90" transform="translate(177,41)"/>
<path d="M0 0 C0.66666667 2.66666667 1.33333333 5.33333333 2 8 C1.195625 8.2475 0.39125 8.495 -0.4375 8.75 C-3.171081 9.72238859 -3.171081 9.72238859 -3.8125 12.125 C-3.874375 12.74375 -3.93625 13.3625 -4 14 C-3.896875 12.989375 -3.79375 11.97875 -3.6875 10.9375 C-2.96295233 6.78781792 -1.77730734 3.78643737 0 0 Z " fill="#157D9A" transform="translate(274,53)"/>
<path d="M0 0 C0.33 0.66 0.66 1.32 1 2 C2.32 2 3.64 2 5 2 C5 1.34 5 0.68 5 0 C6.32 0.33 7.64 0.66 9 1 C7.54735962 1.8638129 6.0876837 2.71580454 4.625 3.5625 C3.40683594 4.27599609 3.40683594 4.27599609 2.1640625 5.00390625 C1.44992188 5.33261719 0.73578125 5.66132812 0 6 C-0.66 5.67 -1.32 5.34 -2 5 C-1.34 3.35 -0.68 1.7 0 0 Z " fill="#137793" transform="translate(107,97)"/>
<path d="M0 0 C1.32 0 2.64 0 4 0 C4.6875 2.25 4.6875 2.25 5 5 C3.5625 7.3125 3.5625 7.3125 2 9 C1.34 8.67 0.68 8.34 0 8 C0.66 6.02 1.32 4.04 2 2 C1.34 2 0.68 2 0 2 C0 1.34 0 0.68 0 0 Z " fill="#157694" transform="translate(390,91)"/>
<path d="M0 0 C1.125 3.75 1.125 3.75 0 6 C-0.66 6 -1.32 6 -2 6 C-1.67 8.31 -1.34 10.62 -1 13 C-1.99 13 -2.98 13 -4 13 C-3.71682074 11.39431334 -3.42312209 9.79047953 -3.125 8.1875 C-2.96257813 7.29417969 -2.80015625 6.40085937 -2.6328125 5.48046875 C-2 3 -2 3 0 0 Z " fill="#1389A9" transform="translate(55,43)"/>
<path d="M0 0 C-0.598125 0.28875 -1.19625 0.5775 -1.8125 0.875 C-4.19327792 2.04742026 -4.19327792 2.04742026 -7 4 C-9.1875 3.625 -9.1875 3.625 -11 3 C-7.79596591 -1.80605113 -5.23274949 -1.0465499 0 0 Z " fill="#0F809B" transform="translate(176,43)"/>
<path d="M0 0 C0.66 0 1.32 0 2 0 C2 0.66 2 1.32 2 2 C2.66 2 3.32 2 4 2 C2.63016497 5.16115776 2.0109362 5.9927092 -1 8 C-1.33 6.35 -1.66 4.7 -2 3 C-1.01 3 -0.02 3 1 3 C0.67 2.01 0.34 1.02 0 0 Z " fill="#0D7490" transform="translate(213,82)"/>
<path d="M0 0 C0.66 0.33 1.32 0.66 2 1 C0.45294267 4.09411467 -1.88071772 4.71558965 -5 6 C-7.375 5.6875 -7.375 5.6875 -9 5 C-3.375 1.125 -3.375 1.125 0 0 Z " fill="#157391" transform="translate(291,39)"/>
<path d="M0 0 C0.33 0.66 0.66 1.32 1 2 C0.25 4.0625 0.25 4.0625 -1 6 C-1.99 6.33 -2.98 6.66 -4 7 C-5.20882096 9.00016466 -5.20882096 9.00016466 -6 11 C-6.66 11 -7.32 11 -8 11 C-6.52670958 5.99081256 -3.72484762 3.48192278 0 0 Z " fill="#146881" transform="translate(64,32)"/>
<path d="M0 0 C-1 1.5 -1 1.5 -3 3 C-5.71846235 3.27345479 -8.25677199 3.13491285 -11 3 C-11 2.34 -11 1.68 -11 1 C-9.5437328 0.63743142 -8.08488815 0.28520207 -6.625 -0.0625 C-5.40683594 -0.35833984 -5.40683594 -0.35833984 -4.1640625 -0.66015625 C-2 -1 -2 -1 0 0 Z " fill="#1E90B0" transform="translate(301,85)"/>
<path d="M0 0 C3.14191424 1.53604696 6.08596738 3.05731159 9 5 C9 5.66 9 6.32 9 7 C9.66 7 10.32 7 11 7 C10.67 7.66 10.34 8.32 10 9 C9.01 8.67 8.02 8.34 7 8 C7 7.34 7 6.68 7 6 C4.525 5.01 4.525 5.01 2 4 C2 3.34 2 2.68 2 2 C1.34 2 0.68 2 0 2 C0 1.34 0 0.68 0 0 Z " fill="#16637E" transform="translate(206,23)"/>
<path d="M0 0 C0.33 0.99 0.66 1.98 1 3 C-5.4 7.06153846 -5.4 7.06153846 -8.4375 6.75 C-8.953125 6.5025 -9.46875 6.255 -10 6 C-6.74147635 3.8276509 -3.40755272 1.92880342 0 0 Z " fill="#187192" transform="translate(193,77)"/>
<path d="M0 0 C0.99 0 1.98 0 3 0 C1.18690997 3.77727089 -0.9073259 7.37269822 -3 11 C-3.33 11 -3.66 11 -4 11 C-4 9.35 -4 7.7 -4 6 C-3.34 6 -2.68 6 -2 6 C-2 5.01 -2 4.02 -2 3 C-1.34 3 -0.68 3 0 3 C0 2.01 0 1.02 0 0 Z " fill="#156073" transform="translate(162,48)"/>
<path d="M0 0 C0.66 0.33 1.32 0.66 2 1 C1.67 2.32 1.34 3.64 1 5 C-1.31 5.33 -3.62 5.66 -6 6 C-4 4 -2 2 0 0 Z " fill="#116E8A" transform="translate(71,26)"/>
<path d="M0 0 C0.99 0.33 1.98 0.66 3 1 C3 1.66 3 2.32 3 3 C3.928125 3.37125 3.928125 3.37125 4.875 3.75 C7.35068687 5.20628639 7.95125002 6.37812506 9 9 C8.34 9.66 7.68 10.32 7 11 C6.566875 10.030625 6.13375 9.06125 5.6875 8.0625 C4.2985139 4.72268235 4.2985139 4.72268235 1 4 C0.3125 1.9375 0.3125 1.9375 0 0 Z " fill="#166F8F" transform="translate(124,25)"/>
<path d="M0 0 C3.3 0.99 6.6 1.98 10 3 C10 3.33 10 3.66 10 4 C6.37 4 2.74 4 -1 4 C-0.67 2.68 -0.34 1.36 0 0 Z " fill="#206E82" transform="translate(362,101)"/>
<path d="M0 0 C0.99 0.33 1.98 0.66 3 1 C3 1.66 3 2.32 3 3 C-2.75 6 -2.75 6 -5 6 C-5.33 5.01 -5.66 4.02 -6 3 C-4.02 3 -2.04 3 0 3 C0 2.01 0 1.02 0 0 Z " fill="#107C9C" transform="translate(456,91)"/>
<path d="M0 0 C0.47050781 0.33773437 0.94101563 0.67546875 1.42578125 1.0234375 C2.35970703 1.69246094 2.35970703 1.69246094 3.3125 2.375 C4.23482422 3.03628906 4.23482422 3.03628906 5.17578125 3.7109375 C6.7652392 4.83410907 8.38062171 5.92041447 10 7 C9.01 7.33 8.02 7.66 7 8 C6.34 7.67 5.68 7.34 5 7 C5 6.34 5 5.68 5 5 C4.01 5.33 3.02 5.66 2 6 C1.34 4.02 0.68 2.04 0 0 Z " fill="#1984A0" transform="translate(75,77)"/>
<path d="M0 0 C0.66 0 1.32 0 2 0 C0.79157144 4.43090471 -0.51668565 6.98112756 -4 10 C-4.33 9.01 -4.66 8.02 -5 7 C-4.01 7 -3.02 7 -2 7 C-2 5.68 -2 4.36 -2 3 C-1.34 3 -0.68 3 0 3 C0 2.01 0 1.02 0 0 Z " fill="#186C87" transform="translate(319,79)"/>
<path d="M0 0 C0.66 0.33 1.32 0.66 2 1 C2.625 4.0625 2.625 4.0625 3 7 C1.68 7.33 0.36 7.66 -1 8 C-1 5.16032769 -0.59732819 2.76264289 0 0 Z " fill="#109ABF" transform="translate(93,57)"/>
<path d="M0 0 C0.66 0.33 1.32 0.66 2 1 C1.34 4.96 0.68 8.92 0 13 C-0.33 13 -0.66 13 -1 13 C-1.33 10.03 -1.66 7.06 -2 4 C-1.34 4 -0.68 4 0 4 C0 2.68 0 1.36 0 0 Z " fill="#12607B" transform="translate(73,54)"/>
<path d="M0 0 C1.65 0 3.3 0 5 0 C5 1.65 5 3.3 5 5 C3.35 4.67 1.7 4.34 0 4 C0 2.68 0 1.36 0 0 Z " fill="#0D94BB" transform="translate(153,57)"/>
<path d="M0 0 C1.32 0.33 2.64 0.66 4 1 C4 1.66 4 2.32 4 3 C4.66 3.33 5.32 3.66 6 4 C5.01 4.495 5.01 4.495 4 5 C3.34 6.32 2.68 7.64 2 9 C1.34 6.03 0.68 3.06 0 0 Z " fill="#0C7293" transform="translate(450,52)"/>
<path d="M0 0 C0.66 0 1.32 0 2 0 C1.67 2.64 1.34 5.28 1 8 C-0.98 8 -2.96 8 -5 8 C-5 7.67 -5 7.34 -5 7 C-3.35 7 -1.7 7 0 7 C-0.185625 6.030625 -0.37125 5.06125 -0.5625 4.0625 C-0.706875 3.051875 -0.85125 2.04125 -1 1 C-0.67 0.67 -0.34 0.34 0 0 Z " fill="#0F5B7B" transform="translate(362,47)"/>
<path d="M0 0 C0 3.3 0 6.6 0 10 C-1.99097846 7.01353231 -2.94124926 4.40312738 -4 1 C-1 0 -1 0 0 0 Z " fill="#137893" transform="translate(203,47)"/>
<path d="M0 0 C0.8353125 0.556875 0.8353125 0.556875 1.6875 1.125 C-1.44748292 2.98276765 -3.68721432 3.32640476 -7.3125 3.125 C-7.3125 2.465 -7.3125 1.805 -7.3125 1.125 C-2.88173077 -1.09038462 -2.88173077 -1.09038462 0 0 Z " fill="#177A95" transform="translate(306.3125,94.875)"/>
<path d="M0 0 C0.99 0.495 0.99 0.495 2 1 C2 1.99 2 2.98 2 4 C2.99 4 3.98 4 5 4 C5.33 5.32 5.66 6.64 6 8 C5.01 8 4.02 8 3 8 C0.89229241 5.11165997 0 3.61537605 0 0 Z " fill="#15697F" transform="translate(416,84)"/>
<path d="M0 0 C-1.29299694 2.88437779 -2.65941363 4.87219421 -5 7 C-5.33 5.35 -5.66 3.7 -6 2 C-3 0 -3 0 0 0 Z " fill="#147D9F" transform="translate(128,85)"/>
<path d="M0 0 C1.485 0.99 1.485 0.99 3 2 C5.32387947 2.39387788 7.65793749 2.73486085 10 3 C10 3.33 10 3.66 10 4 C6.7 4.33 3.4 4.66 0 5 C0 3.35 0 1.7 0 0 Z " fill="#156A84" transform="translate(378,79)"/>
<path d="M0 0 C-0.66 0 -1.32 0 -2 0 C-2 0.99 -2 1.98 -2 3 C-4.64 3 -7.28 3 -10 3 C-9 1 -9 1 -6.125 -0.1875 C-3 -1 -3 -1 0 0 Z " fill="#115E7A" transform="translate(87,21)"/>
<path d="M0 0 C2.0625 0.4375 2.0625 0.4375 4 1 C3.1875 2.9375 3.1875 2.9375 2 5 C1.01 5.33 0.02 5.66 -1 6 C-1.042721 4.33388095 -1.04063832 2.66617115 -1 1 C-0.67 0.67 -0.34 0.34 0 0 Z " fill="#127FA4" transform="translate(309,89)"/>
<path d="M0 0 C0.2475 0.61875 0.495 1.2375 0.75 1.875 C2.20628639 4.35068687 3.37812506 4.95125002 6 6 C3.36 6 0.72 6 -2 6 C-1.49396008 3.83125748 -1.00016187 2.00032373 0 0 Z " fill="#114256" transform="translate(4,54)"/>
<path d="M0 0 C0.33 0.66 0.66 1.32 1 2 C0.34 2 -0.32 2 -1 2 C-1.66 3.98 -2.32 5.96 -3 8 C-3.99 7.67 -4.98 7.34 -6 7 C-2.25 1.125 -2.25 1.125 0 0 Z " fill="#197593" transform="translate(281,45)"/>
<path d="M0 0 C1.04449911 3.13349732 0.93423645 3.98968256 0 7 C-0.99 6.34 -1.98 5.68 -3 5 C-2.625 3.0625 -2.625 3.0625 -2 1 C-1.34 0.67 -0.68 0.34 0 0 Z " fill="#0E8AB2" transform="translate(199,41)"/>
<path d="M0 0 C4 4.75 4 4.75 4 7 C2.68 7 1.36 7 0 7 C0 4.69 0 2.38 0 0 Z " fill="#197BA0" transform="translate(158,72)"/>
<path d="M0 0 C0.66 0 1.32 0 2 0 C2.66 2.97 3.32 5.94 4 9 C0.06153846 5.67692308 0.06153846 5.67692308 -0.25 2.25 C-0.1675 1.5075 -0.085 0.765 0 0 Z " fill="#1D7592" transform="translate(71,68)"/>
<path d="M0 0 C0 3.3 0 6.6 0 10 C-0.33 10 -0.66 10 -1 10 C-1.309375 8.88625 -1.61875 7.7725 -1.9375 6.625 C-2.82326483 3.2054845 -2.82326483 3.2054845 -4 1 C-2 0 -2 0 0 0 Z " fill="#147193" transform="translate(308,51)"/>
</svg>
