<?xml version="1.0" encoding="UTF-8"?>
<svg version="1.1" xmlns="http://www.w3.org/2000/svg" width="500" height="500">
<path d="M0 0 C0.92256592 0.09104004 1.84513184 0.18208008 2.7956543 0.27587891 C13.27848427 1.42606429 22.53498325 4.21896139 31.8125 9.3125 C31.8125 9.9725 31.8125 10.6325 31.8125 11.3125 C32.43125 11.456875 33.05 11.60125 33.6875 11.75 C35.8125 12.3125 35.8125 12.3125 37.8125 13.3125 C37.8125 13.9725 37.8125 14.6325 37.8125 15.3125 C38.43125 15.621875 39.05 15.93125 39.6875 16.25 C41.0625 16.9375 42.4375 17.625 43.8125 18.3125 C43.8125 18.9725 43.8125 19.6325 43.8125 20.3125 C44.4725 20.3125 45.1325 20.3125 45.8125 20.3125 C45.8125 20.9725 45.8125 21.6325 45.8125 22.3125 C46.4725 22.3125 47.1325 22.3125 47.8125 22.3125 C49.6875 24.7265625 49.6875 24.7265625 51.8125 27.9375 C52.51375 28.98164063 53.215 30.02578125 53.9375 31.1015625 C55.71433152 34.14438647 56.83964417 36.93790635 57.8125 40.3125 C54.23432579 42.69794947 50.75737562 43.36525234 46.625 44.25 C40.77820745 45.50398993 35.3835004 47.12663558 29.8125 49.3125 C25.84261572 50.56963002 22.99074112 51.3125 18.8125 51.3125 C18.8125 50.6525 18.8125 49.9925 18.8125 49.3125 C18.1525 49.3125 17.4925 49.3125 16.8125 49.3125 C16.8125 48.6525 16.8125 47.9925 16.8125 47.3125 C16.1525 47.3125 15.4925 47.3125 14.8125 47.3125 C14.8125 46.6525 14.8125 45.9925 14.8125 45.3125 C14.1525 45.3125 13.4925 45.3125 12.8125 45.3125 C12.8125 44.6525 12.8125 43.9925 12.8125 43.3125 C12.049375 43.065 11.28625 42.8175 10.5 42.5625 C8.40973672 41.85393617 6.32742224 41.11637288 4.28125 40.2890625 C-6.87737569 35.86949446 -15.04358923 36.72223785 -26.1875 41.3125 C-35.92214045 46.66045964 -42.83578612 54.13652259 -47.1875 64.3125 C-47.579375 65.17875 -47.97125 66.045 -48.375 66.9375 C-50.94811034 74.45889945 -51.10849585 83.6285166 -49.1875 91.3125 C-47.72696964 93.77383946 -46.15436869 96.08485127 -44.46484375 98.39453125 C-43.1875 100.3125 -43.1875 100.3125 -43.1875 102.3125 C-42.33091797 102.72822266 -42.33091797 102.72822266 -41.45703125 103.15234375 C-39.20044133 104.30588455 -37.05241467 105.57938026 -34.875 106.875 C-26.76437978 111.38090012 -17.33944831 111.26670104 -8.4765625 109.05859375 C-0.48502145 106.45384232 5.36175192 101.61145122 10.8125 95.3125 C11.1425 94.6525 11.4725 93.9925 11.8125 93.3125 C0.2625 92.9825 -11.2875 92.6525 -23.1875 92.3125 C-20.9375 81.0625 -20.9375 81.0625 -19.4609375 77.1796875 C-18.996875 75.9421875 -18.996875 75.9421875 -18.5234375 74.6796875 C-18.20632812 73.85726562 -17.88921875 73.03484375 -17.5625 72.1875 C-17.23765625 71.32640625 -16.9128125 70.4653125 -16.578125 69.578125 C-15.78809488 67.48686879 -14.99120321 65.39853064 -14.1875 63.3125 C-13.5275 63.3125 -12.8675 63.3125 -12.1875 63.3125 C-12.1875 62.6525 -12.1875 61.9925 -12.1875 61.3125 C10.5825 61.3125 33.3525 61.3125 56.8125 61.3125 C57.8025 58.3425 58.7925 55.3725 59.8125 52.3125 C63.04918881 45.42207004 66.97275853 38.2164015 71.8125 32.3125 C72.4725 32.3125 73.1325 32.3125 73.8125 32.3125 C73.8125 31.6525 73.8125 30.9925 73.8125 30.3125 C74.4725 30.3125 75.1325 30.3125 75.8125 30.3125 C75.8125 29.6525 75.8125 28.9925 75.8125 28.3125 C76.4725 28.3125 77.1325 28.3125 77.8125 28.3125 C77.8125 27.6525 77.8125 26.9925 77.8125 26.3125 C78.4725 26.3125 79.1325 26.3125 79.8125 26.3125 C79.8125 25.6525 79.8125 24.9925 79.8125 24.3125 C80.4725 24.3125 81.1325 24.3125 81.8125 24.3125 C81.8125 23.6525 81.8125 22.9925 81.8125 22.3125 C84.2875 21.3225 84.2875 21.3225 86.8125 20.3125 C86.8125 19.6525 86.8125 18.9925 86.8125 18.3125 C102.88634805 6.31620899 120.63663439 0.90800205 140.5625 0.9375 C142.27058838 0.93991699 142.27058838 0.93991699 144.01318359 0.94238281 C156.03510671 1.11683667 166.26164962 3.34032054 176.8125 9.3125 C178.14252141 9.98574978 179.47511245 10.65400417 180.8125 11.3125 C180.8125 11.9725 180.8125 12.6325 180.8125 13.3125 C181.493125 13.498125 182.17375 13.68375 182.875 13.875 C186.952217 15.87023385 190.01261875 18.74490937 192.8125 22.3125 C193.515625 24.5390625 193.515625 24.5390625 193.8125 26.3125 C194.4725 26.3125 195.1325 26.3125 195.8125 26.3125 C204.29260198 37.48200576 207.00324917 49.96784027 206.9375 63.6875 C206.94136719 64.48671875 206.94523437 65.2859375 206.94921875 66.109375 C206.93480755 75.01549366 206.00894296 82.76030332 202.875 91.125 C202.47764648 92.23004883 202.47764648 92.23004883 202.07226562 93.35742188 C200.8267464 96.77873647 199.55469345 100.10585409 197.8125 103.3125 C197.1525 103.3125 196.4925 103.3125 195.8125 103.3125 C195.70808594 103.87453125 195.60367187 104.4365625 195.49609375 105.015625 C194.68636765 107.73630471 193.45046662 109.70507807 191.875 112.0625 C191.08802734 113.26132813 191.08802734 113.26132813 190.28515625 114.484375 C189.79917969 115.08765625 189.31320312 115.6909375 188.8125 116.3125 C188.1525 116.3125 187.4925 116.3125 186.8125 116.3125 C186.8125 116.9725 186.8125 117.6325 186.8125 118.3125 C186.1525 118.3125 185.4925 118.3125 184.8125 118.3125 C184.8125 118.9725 184.8125 119.6325 184.8125 120.3125 C184.1525 120.3125 183.4925 120.3125 182.8125 120.3125 C182.8125 120.9725 182.8125 121.6325 182.8125 122.3125 C182.1525 122.3125 181.4925 122.3125 180.8125 122.3125 C180.8125 122.9725 180.8125 123.6325 180.8125 124.3125 C177.35096154 127.3125 177.35096154 127.3125 174.8125 127.3125 C174.8125 127.9725 174.8125 128.6325 174.8125 129.3125 C159.06879856 141.10036415 139.99114899 146.9286685 120.4375 146.75 C119.25647705 146.74170166 118.0754541 146.73340332 116.85864258 146.72485352 C102.14363661 146.44049091 90.60683876 142.33065808 77.8125 135.3125 C77.8125 134.6525 77.8125 133.9925 77.8125 133.3125 C77.07902344 133.065 76.34554687 132.8175 75.58984375 132.5625 C66.39990386 128.42638078 60.3221189 118.36132505 56.59375 109.375 C55.11281339 105.39762738 53.78338168 101.44595667 52.8125 97.3125 C52.35101563 98.25609375 51.88953125 99.1996875 51.4140625 100.171875 C45.71661726 111.50743254 39.08345644 122.73777541 27.8125 129.3125 C27.1525 129.3125 26.4925 129.3125 25.8125 129.3125 C25.8125 129.9725 25.8125 130.6325 25.8125 131.3125 C20.51838235 135.3125 20.51838235 135.3125 16.8125 135.3125 C16.8125 135.9725 16.8125 136.6325 16.8125 137.3125 C13.85898347 138.45042707 10.89891911 139.57031794 7.9375 140.6875 C6.70386719 141.16316406 6.70386719 141.16316406 5.4453125 141.6484375 C-4.38968791 145.33656265 -13.50926342 146.68276561 -24 146.625 C-25.05662842 146.62008545 -26.11325684 146.6151709 -27.2019043 146.61010742 C-43.569958 146.36452994 -58.08291645 141.37540071 -71.1875 131.3125 C-71.1875 130.6525 -71.1875 129.9925 -71.1875 129.3125 C-71.8475 129.3125 -72.5075 129.3125 -73.1875 129.3125 C-73.1875 128.6525 -73.1875 127.9925 -73.1875 127.3125 C-73.78691406 127.05339844 -74.38632813 126.79429687 -75.00390625 126.52734375 C-82.81691197 122.18057313 -86.58722783 111.29894809 -89.1640625 103.26953125 C-92.98200225 88.3367482 -93.12238508 71.62260119 -87.1875 57.3125 C-86.836875 56.33667969 -86.48625 55.36085937 -86.125 54.35546875 C-83.85744477 48.34802209 -80.92965887 42.96604355 -77.5 37.5625 C-77.10723877 36.94125244 -76.71447754 36.32000488 -76.30981445 35.67993164 C-75.32745669 34.1840831 -74.26395191 32.74212965 -73.1875 31.3125 C-72.5275 31.3125 -71.8675 31.3125 -71.1875 31.3125 C-70.80078125 30.43851563 -70.80078125 30.43851563 -70.40625 29.546875 C-69.08915983 27.1322097 -67.63661616 25.49509823 -65.6875 23.5625 C-64.77484375 22.64210937 -64.77484375 22.64210937 -63.84375 21.703125 C-62.1875 20.3125 -62.1875 20.3125 -60.1875 20.3125 C-60.1875 19.6525 -60.1875 18.9925 -60.1875 18.3125 C-43.34876325 4.8415106 -21.46412821 -2.1497412 0 0 Z M113.8125 43.3125 C113.8125 43.9725 113.8125 44.6325 113.8125 45.3125 C113.255625 45.539375 112.69875 45.76625 112.125 46 C103.2749722 51.02298875 97.80012333 60.92063795 94.8125 70.3125 C92.41274263 80.19950036 93.24179812 89.2628774 97.8125 98.3125 C98.1425 98.9725 98.4725 99.6325 98.8125 100.3125 C99.4725 100.3125 100.1325 100.3125 100.8125 100.3125 C100.8125 100.9725 100.8125 101.6325 100.8125 102.3125 C101.4725 102.3125 102.1325 102.3125 102.8125 102.3125 C102.8125 102.9725 102.8125 103.6325 102.8125 104.3125 C103.4725 104.3125 104.1325 104.3125 104.8125 104.3125 C104.8125 104.9725 104.8125 105.6325 104.8125 106.3125 C112.75445491 111.27622182 120.38560826 113.42313954 129.8125 112.3125 C136.35722532 110.70937284 142.59008125 108.66451563 147.8125 104.3125 C147.8125 103.6525 147.8125 102.9925 147.8125 102.3125 C148.39 102.07015625 148.9675 101.8278125 149.5625 101.578125 C156.99056684 97.3998374 163.04787741 88.26195205 165.5625 80.3125 C167.75490325 71.42175973 168.54639595 61.63841266 164.1328125 53.3359375 C159.24125147 45.83940314 153.28103336 39.94774523 144.37109375 37.6953125 C132.99520272 35.99327079 123.98701694 38.46076276 113.8125 43.3125 Z " fill="#029CC1" transform="translate(196.1875,137.6875)"/>
<path d="M0 0 C0.97484848 0.00222061 1.94969696 0.00444122 2.9540863 0.00672913 C4.05515213 0.00680466 5.15621796 0.00688019 6.29064941 0.00695801 C7.48854599 0.01211929 8.68644257 0.01728058 9.92063904 0.02259827 C11.14000656 0.02401321 12.35937408 0.02542816 13.61569214 0.02688599 C17.52856349 0.03250485 21.4413786 0.04506055 25.35423279 0.05775452 C27.99941426 0.06276709 30.64459662 0.06733041 33.28977966 0.07142639 C39.79045005 0.08248041 46.2910874 0.09923688 52.79173279 0.12025452 C52.31919164 3.26712075 51.83759412 6.4125336 51.35423279 9.55775452 C51.15217224 10.90450256 51.15217224 10.90450256 50.94602966 12.27845764 C50.7478363 13.5594635 50.7478363 13.5594635 50.54563904 14.86634827 C50.42519226 15.65710754 50.30474548 16.44786682 50.1806488 17.2625885 C49.79173279 19.12025452 49.79173279 19.12025452 48.79173279 20.12025452 C46.34342852 20.20869245 43.9235268 20.23554203 41.47532654 20.21791077 C40.744272 20.21649582 40.01321747 20.21508087 39.26000977 20.21362305 C36.91637647 20.2080086 34.5728374 20.19545373 32.22923279 20.18275452 C30.64394771 20.17774137 29.05866113 20.17317815 27.47337341 20.16908264 C23.57945669 20.15803448 19.68561073 20.14076023 15.79173279 20.12025452 C15.70085388 21.04644592 15.70085388 21.04644592 15.60813904 21.99134827 C15.52434998 22.83826233 15.44056091 23.68517639 15.35423279 24.55775452 C15.27302185 25.38146545 15.19181091 26.20517639 15.10813904 27.05384827 C14.69285854 31.07848026 14.23853881 35.09900036 13.79173279 39.12025452 C22.70173279 39.12025452 31.61173279 39.12025452 40.79173279 39.12025452 C40.79173279 47.08948529 40.79173279 47.08948529 39.91673279 51.37025452 C39.75431091 52.20041077 39.59188904 53.03056702 39.42454529 53.88587952 C38.79173279 56.12025452 38.79173279 56.12025452 36.79173279 59.12025452 C34.78782654 59.44837952 34.78782654 59.44837952 32.22923279 59.37025452 C30.77903748 59.33158264 30.77903748 59.33158264 29.29954529 59.29212952 C22.45967973 58.95699134 15.6250979 58.56886934 8.79173279 58.12025452 C8.76595154 58.71709045 8.74017029 59.31392639 8.71360779 59.92884827 C8.17226355 68.20895443 6.33567924 76.03044789 4.31175232 84.04750061 C3.94962115 85.49092486 3.59715118 86.9367929 3.25218201 88.38441467 C1.90014611 94.0118412 1.90014611 94.0118412 0.79173279 95.12025452 C-0.91599079 95.20739283 -2.6272537 95.22725459 -4.33717346 95.21791077 C-5.88888245 95.21307678 -5.88888245 95.21307678 -7.47193909 95.20814514 C-8.56055237 95.19976624 -9.64916565 95.19138733 -10.77076721 95.18275452 C-12.40948792 95.17598694 -12.40948792 95.17598694 -14.08131409 95.16908264 C-16.79035216 95.15725278 -19.4992832 95.14076995 -22.20826721 95.12025452 C-20.20716424 84.38808218 -18.14194284 73.67433531 -15.89186096 62.99134827 C-14.08455791 54.36496225 -12.31071858 45.73249962 -10.56764221 37.09291077 C-10.13276907 34.94251555 -9.69787328 32.79212492 -9.26295471 30.64173889 C-8.6006172 27.36565819 -7.93951142 24.08934769 -7.2815094 20.81239319 C-6.63033956 17.5718573 -5.97443809 14.33231034 -5.31764221 11.09291077 C-5.11975098 10.10154617 -4.92185974 9.11018158 -4.7179718 8.08877563 C-4.53397827 7.18529892 -4.34998474 6.2818222 -4.16041565 5.35096741 C-4.00006836 4.5550972 -3.83972107 3.75922699 -3.67451477 2.9392395 C-2.99799739 0.29992281 -2.76633641 0.15064501 0 0 Z " fill="#029EC4" transform="translate(223.20826721191406,282.87974548339844)"/>
<path d="M0 0 C-0.53734764 10.36814375 -2.83513801 20.29597344 -5.06420898 30.39892578 C-7.65398509 42.07687017 -7.65398509 42.07687017 -8 54 C0.05933157 54.5896776 0.05933157 54.5896776 7 51 C15.00089992 42.99910008 15.68241701 29.1038756 17.6875 18.4375 C18.01050501 16.7440332 18.33406794 15.05067272 18.65820312 13.35742188 C19.44628603 9.23963833 20.2228571 5.11992197 21 1 C27.93 1 34.86 1 42 1 C40.87501868 12.24981315 40.87501868 12.24981315 40.00024414 16.47460938 C39.80656754 17.42259399 39.61289093 18.37057861 39.41334534 19.34729004 C39.20604294 20.33612183 38.99874054 21.32495361 38.78515625 22.34375 C38.5693541 23.39348999 38.35355194 24.44322998 38.13121033 25.52478027 C37.44637717 28.85085223 36.75461415 32.17543634 36.0625 35.5 C35.6017424 37.73037147 35.14145187 39.96083949 34.68164062 42.19140625 C33.64429692 47.22204519 32.60200982 52.25163567 31.55618286 57.28051758 C30.82548069 60.85332044 30.13484369 64.43363338 29.45262146 68.01599121 C29 70 29 70 28 72 C21.73 72 15.46 72 9 72 C9 70.35 9 68.7 9 67 C8.34 67 7.68 67 7 67 C7 67.66 7 68.32 7 69 C-0.06497234 73.8170266 -8.27062214 75.93094706 -16.8125 74.5 C-22.92873565 72.75726135 -26.7314227 69.12793612 -29.9375 63.75 C-33.06637783 52.70690179 -29.47384077 41.40663274 -27.125 30.5 C-26.75557998 28.75149841 -26.38708348 27.00280143 -26.01953125 25.25390625 C-25.32247032 21.94174788 -24.62084526 18.63061775 -23.91503906 15.3203125 C-22.90153807 10.55491627 -21.93837183 5.78075753 -21 1 C-17.68752012 0.83293193 -14.37501287 0.66641273 -11.0625 0.5 C-10.11697266 0.45230469 -9.17144531 0.40460938 -8.19726562 0.35546875 C-7.29814453 0.31035156 -6.39902344 0.26523437 -5.47265625 0.21875 C-4.64000244 0.17685547 -3.80734863 0.13496094 -2.94946289 0.09179688 C-1.96692123 0.04553067 -0.98363035 0 0 0 Z " fill="#049DC2" transform="translate(329,306)"/>
<path d="M0 0 C8.25 0 16.5 0 25 0 C25.825 2.413125 26.65 4.82625 27.5 7.3125 C27.76103516 8.06829346 28.02207031 8.82408691 28.29101562 9.6027832 C29.27717698 12.52487323 30 14.89614406 30 18 C30.66 18 31.32 18 32 18 C32.66 16.35 33.32 14.7 34 13 C34.66 13 35.32 13 36 13 C36.20625 12.154375 36.4125 11.30875 36.625 10.4375 C38.36323638 6.09190905 40.17612307 2.80563793 44 0 C47.83068551 -0.84682554 51.47581737 -0.66641975 55.375 -0.4375 C56.39722656 -0.40591797 57.41945313 -0.37433594 58.47265625 -0.34179688 C60.98475434 -0.25962544 63.49086534 -0.14484348 66 0 C65.67 1.32 65.34 2.64 65 4 C64.34 4 63.68 4 63 4 C62.71125 4.763125 62.4225 5.52625 62.125 6.3125 C61 9 61 9 59 12 C58.34 12 57.68 12 57 12 C56.7834375 12.67804688 56.566875 13.35609375 56.34375 14.0546875 C54.59096196 17.89655432 52.15536068 20.86583637 49.5 24.125 C48.50952575 25.35605456 47.51991013 26.58780055 46.53125 27.8203125 C46.09361328 28.35930176 45.65597656 28.89829102 45.20507812 29.45361328 C44.06534182 30.91615173 43.02851911 32.45722134 42 34 C41.34 34 40.68 34 40 34 C43.88969789 46.17400636 48.38147073 58.08615688 53 70 C49.63348195 72.24434537 48.78403012 72.20138902 44.89453125 71.9765625 C43.42016602 71.89921875 43.42016602 71.89921875 41.91601562 71.8203125 C40.89185547 71.75585938 39.86769531 71.69140625 38.8125 71.625 C37.77673828 71.56828125 36.74097656 71.5115625 35.67382812 71.453125 C33.11518729 71.31163334 30.55752516 71.16022134 28 71 C27.32873871 68.5636811 26.66283646 66.12611117 26 63.6875 C25.80921875 62.99720703 25.6184375 62.30691406 25.421875 61.59570312 C24.62283816 58.64212051 24 56.07440781 24 53 C23.34 53 22.68 53 22 53 C21.34 54.65 20.68 56.3 20 58 C19.34 58 18.68 58 18 58 C17.71125 58.598125 17.4225 59.19625 17.125 59.8125 C16 62 16 62 14 65 C13.34 65 12.68 65 12 65 C11.690625 65.61875 11.38125 66.2375 11.0625 66.875 C10.375 68.25 9.6875 69.625 9 71 C4.07324223 72.22017833 -0.83656772 72.11800815 -5.875 72.0625 C-6.65875 72.05798828 -7.4425 72.05347656 -8.25 72.04882812 C-10.16670014 72.03714093 -12.08336048 72.01920908 -14 72 C-14 69 -14 69 -13 67 C-12.34 67 -11.68 67 -11 67 C-10.7525 66.46375 -10.505 65.9275 -10.25 65.375 C-8.69347463 62.4176018 -6.96564327 59.70275949 -5 57 C-4.34 57 -3.68 57 -3 57 C-2.773125 56.484375 -2.54625 55.96875 -2.3125 55.4375 C-0.51782382 52.10452995 1.49965015 48.85296329 4 46 C4.66 46 5.32 46 6 46 C6.2475 45.46375 6.495 44.9275 6.75 44.375 C8 42 8 42 10.1875 39.125 C12.41697166 35.28108335 12.01120777 34.22956171 11 30 C10.22073421 27.76636444 9.3814518 25.55312159 8.49609375 23.359375 C8.2533522 22.75111877 8.01061066 22.14286255 7.76051331 21.51617432 C6.99181122 19.59179815 6.21528993 17.67071907 5.4375 15.75 C4.65706492 13.8146556 3.87840521 11.87865447 3.10377502 9.940979 C2.4045701 8.19306134 1.69938209 6.44754058 0.99389648 4.70214844 C0 2 0 2 0 0 Z " fill="#049ABE" transform="translate(378,306)"/>
<path d="M0 0 C6.93 0 13.86 0 21 0 C20.35163847 5.83525378 19.65031776 11.54781449 18.625 17.3125 C18.5115625 17.98216797 18.398125 18.65183594 18.28125 19.34179688 C17.5508683 23.4871015 16.6273879 27.54456101 15.578125 31.62109375 C13.79810982 38.61054655 12.45793412 45.66386407 11.125 52.75 C10.60536093 55.47704274 10.08233053 58.20342906 9.55859375 60.9296875 C9.42860489 61.6071402 9.29861603 62.2845929 9.16468811 62.98257446 C7.88696953 69.62324718 6.5544969 76.25211823 5.1875 82.875 C4.9807666 83.89045898 4.7740332 84.90591797 4.56103516 85.95214844 C4.36944824 86.87286133 4.17786133 87.79357422 3.98046875 88.7421875 C3.81442139 89.5451123 3.64837402 90.34803711 3.47729492 91.17529297 C3 93 3 93 2 94 C0.5112814 94.08669432 -0.981445 94.10703494 -2.47265625 94.09765625 C-3.37177734 94.09443359 -4.27089844 94.09121094 -5.19726562 94.08789062 C-6.61555664 94.07532227 -6.61555664 94.07532227 -8.0625 94.0625 C-9.01189453 94.05798828 -9.96128906 94.05347656 -10.93945312 94.04882812 C-13.29303065 94.0370011 -15.64648477 94.02052025 -18 94 C-17.27892712 86.47680627 -16.01360835 79.11407502 -14.625 71.6875 C-14.31175781 69.96756836 -14.31175781 69.96756836 -13.9921875 68.21289062 C-12.77897442 61.67707503 -11.35328147 55.24631893 -9.70092773 48.80834961 C-7.66971671 40.67006314 -6.38740697 32.40105904 -5.0625 24.125 C-3.73137686 15.94774257 -2.21871532 7.98737514 0 0 Z " fill="#059BC0" transform="translate(282,284)"/>
<path d="M0 0 C28.05 0 56.1 0 85 0 C83.77297641 9.81618869 83.77297641 9.81618869 81 12 C78.18501566 12.38145407 75.76238572 12.50633884 72.94848633 12.45410156 C71.71887932 12.45497772 71.71887932 12.45497772 70.46443176 12.45587158 C67.75320175 12.45308342 65.04306933 12.42195769 62.33203125 12.390625 C60.4530243 12.38316519 58.57400957 12.37747103 56.69499207 12.37347412 C51.74804221 12.35819727 46.8015617 12.3188978 41.85479736 12.2746582 C36.80755971 12.23374971 31.76024626 12.21547256 26.71289062 12.1953125 C16.80838747 12.15240552 6.90423276 12.08412939 -3 12 C-3.75 9.9375 -3.75 9.9375 -4 7 C-2.68 4.69 -1.36 2.38 0 0 Z " fill="#0686A6" transform="translate(14,196)"/>
<path d="M0 0 C1.26115631 0.02009628 2.52231262 0.04019257 3.82168579 0.06089783 C5.20322889 0.08809623 6.58476978 0.11540704 7.96630859 0.14282227 C9.37591803 0.16712102 10.78553537 0.1909647 12.19515991 0.21437073 C15.90735885 0.27723607 19.61941792 0.3462957 23.33148193 0.41662598 C27.11854679 0.48728735 30.90571091 0.55211744 34.69287109 0.61743164 C42.12527254 0.74647554 49.5575359 0.88206045 56.98974609 1.02172852 C56.11474609 5.77172852 56.11474609 5.77172852 54.98974609 8.02172852 C54.32974609 8.02172852 53.66974609 8.02172852 52.98974609 8.02172852 C52.98974609 8.68172852 52.98974609 9.34172852 52.98974609 10.02172852 C52.32974609 10.02172852 51.66974609 10.02172852 50.98974609 10.02172852 C50.98974609 10.68172852 50.98974609 11.34172852 50.98974609 12.02172852 C30.52974609 12.02172852 10.06974609 12.02172852 -11.01025391 12.02172852 C-9.8382109 3.81742744 -9.8382109 3.81742744 -8.01025391 1.02172852 C-5.25034401 -0.35822643 -3.08751017 -0.05535377 0 0 Z " fill="#0493B6" transform="translate(52.01025390625,172.978271484375)"/>
<path d="M0 0 C14.19 0 28.38 0 43 0 C43 3.63 43 7.26 43 11 C36.9312332 11.16755313 30.86233729 11.32811943 24.79321289 11.48217773 C22.72805796 11.53558831 20.66295172 11.59091695 18.59790039 11.64819336 C15.63177998 11.73013039 12.66555359 11.80519629 9.69921875 11.87890625 C8.31158577 11.91945885 8.31158577 11.91945885 6.8959198 11.96083069 C6.03525406 11.98092697 5.17458832 12.00102325 4.2878418 12.02172852 C3.53061325 12.04171402 2.7733847 12.06169952 1.99320984 12.08229065 C0 12 0 12 -3 11 C-2.42732628 6.89583836 -1.5731146 3.9327865 0 0 Z " fill="#0890B1" transform="translate(53,219)"/>
<path d="M0 0 C27.06 0 54.12 0 82 0 C82 0.99 82 1.98 82 3 C54.94 2.67 27.88 2.34 0 2 C0 1.34 0 0.68 0 0 Z " fill="#1AAAC8" transform="translate(16,196)"/>
<path d="M0 0 C0.99 1.485 0.99 1.485 2 3 C1 4 1 4 -1.73976135 4.12025452 C-2.96331833 4.11803391 -4.18687531 4.11581329 -5.44750977 4.11352539 C-6.45722336 4.11374443 -6.45722336 4.11374443 -7.48733521 4.1139679 C-9.72205784 4.11326878 -11.9566981 4.10547652 -14.19140625 4.09765625 C-15.73697362 4.09579206 -17.28254157 4.09436816 -18.82810974 4.09336853 C-22.90357077 4.0895434 -26.97899637 4.07971317 -31.05444336 4.06866455 C-35.21011882 4.05845032 -39.36579999 4.05387089 -43.52148438 4.04882812 C-51.68100587 4.03809089 -59.84049853 4.02101454 -68 4 C-68 4.66 -68 5.32 -68 6 C-68.66 6 -69.32 6 -70 6 C-70 6.66 -70 7.32 -70 8 C-70.66 7.67 -71.32 7.34 -72 7 C-71.67 6.01 -71.34 5.02 -71 4 C-70.34 4 -69.68 4 -69 4 C-69 3.34 -69 2.68 -69 2 C-46.23 2 -23.46 2 0 2 C0 1.34 0 0.68 0 0 Z " fill="#0F657B" transform="translate(253,197)"/>
<path d="M0 0 C0.66 0 1.32 0 2 0 C2 2.31 2 4.62 2 7 C1.34 7 0.68 7 0 7 C0 7.66 0 8.32 0 9 C26.4 9 52.8 9 80 9 C80 8.01 80 7.02 80 6 C81.32 6 82.64 6 84 6 C83.34 7.65 82.68 9.3 82 11 C53.95 10.67 25.9 10.34 -3 10 C-2 3 -2 3 0 0 Z " fill="#0F97B7" transform="translate(14,196)"/>
<path d="M0 0 C30.195 0.495 30.195 0.495 61 1 C60.67 1.66 60.34 2.32 60 3 C40.2 3 20.4 3 0 3 C0 2.01 0 1.02 0 0 Z " fill="#2498B4" transform="translate(41,182)"/>
<path d="M0 0 C0.97484848 0.00222061 1.94969696 0.00444122 2.9540863 0.00672913 C4.05515213 0.00680466 5.15621796 0.00688019 6.29064941 0.00695801 C8.08749428 0.01469994 8.08749428 0.01469994 9.92063904 0.02259827 C11.14000656 0.02401321 12.35937408 0.02542816 13.61569214 0.02688599 C17.52856349 0.03250485 21.4413786 0.04506055 25.35423279 0.05775452 C27.99941426 0.06276709 30.64459662 0.06733041 33.28977966 0.07142639 C39.79045005 0.08248041 46.2910874 0.09923688 52.79173279 0.12025452 C52.46173279 3.09025452 52.13173279 6.06025452 51.79173279 9.12025452 C51.46173279 9.12025452 51.13173279 9.12025452 50.79173279 9.12025452 C50.29673279 6.15025452 50.29673279 6.15025452 49.79173279 3.12025452 C33.48551108 1.745031 17.13995473 2.02300601 0.79173279 2.12025452 C0.79173279 3.11025452 0.79173279 4.10025452 0.79173279 5.12025452 C-0.52826721 5.45025452 -1.84826721 5.78025452 -3.20826721 6.12025452 C-3.25098821 4.45413547 -3.24890553 2.78642567 -3.20826721 1.12025452 C-2.20826721 0.12025452 -2.20826721 0.12025452 0 0 Z " fill="#249DBD" transform="translate(223.20826721191406,282.87974548339844)"/>
<path d="M0 0 C2 2 2 2 2.1953125 5.9140625 C2.18200376 7.48449351 2.15813602 9.05486221 2.125 10.625 C2.11597656 11.42679687 2.10695313 12.22859375 2.09765625 13.0546875 C2.07406223 15.03658523 2.03819065 17.01832981 2 19 C3.32 19 4.64 19 6 19 C6.2475 19.804375 6.495 20.60875 6.75 21.4375 C7.72238859 24.171081 7.72238859 24.171081 10.125 24.8125 C11.053125 24.9053125 11.053125 24.9053125 12 25 C12 25.66 12 26.32 12 27 C14.31 27 16.62 27 19 27 C18.67 27.66 18.34 28.32 18 29 C11.88912103 28.97228626 7.87708509 28.06961696 3.44140625 23.7265625 C-1.3306769 18.0104087 -1.52640115 12.08248818 -1 5 C-0.5 1.875 -0.5 1.875 0 0 Z " fill="#157D94" transform="translate(299,351)"/>
<path d="M0 0 C11.55 0 23.1 0 35 0 C34 5 34 5 32 7 C31.34 5.35 30.68 3.7 30 2 C29.16227051 2.01047363 28.32454102 2.02094727 27.46142578 2.03173828 C24.35661836 2.06580019 21.25190608 2.09088911 18.14697266 2.10986328 C16.1408864 2.12488107 14.13488676 2.15028981 12.12890625 2.17578125 C10.87207031 2.18222656 9.61523438 2.18867188 8.3203125 2.1953125 C7.15773926 2.20578613 5.99516602 2.21625977 4.79736328 2.22705078 C2 2 2 2 0 0 Z " fill="#087189" transform="translate(74,174)"/>
<path d="M0 0 C1.32 0.66 2.64 1.32 4 2 C3.814375 2.94875 3.62875 3.8975 3.4375 4.875 C2.71313368 7.89868793 2.71313368 7.89868793 4 10 C7.89415629 11.52001649 7.89415629 11.52001649 12 12 C11.34 13.32 10.68 14.64 10 16 C7.0280615 14.87548273 4.66559313 13.77706209 2 12 C2 11.34 2 10.68 2 10 C1.34 10 0.68 10 0 10 C0 9.34 0 8.68 0 8 C-0.598125 7.773125 -1.19625 7.54625 -1.8125 7.3125 C-4.56351888 5.66188867 -5.52484637 3.8027919 -7 1 C-5.02 1.66 -3.04 2.32 -1 3 C-0.67 2.01 -0.34 1.02 0 0 Z " fill="#0C84A2" transform="translate(123,257)"/>
<path d="M0 0 C0.33 0 0.66 0 1 0 C1.25 6.625 1.25 6.625 -1 10 C-3.00390625 10.328125 -3.00390625 10.328125 -5.5625 10.25 C-7.01269531 10.21132813 -7.01269531 10.21132813 -8.4921875 10.171875 C-15.33205306 9.83673682 -22.16663488 9.44861483 -29 9 C-29 8.34 -29 7.68 -29 7 C-19.76 7 -10.52 7 -1 7 C-0.67 4.69 -0.34 2.38 0 0 Z " fill="#157A91" transform="translate(261,332)"/>
<path d="M0 0 C5.94 0 11.88 0 18 0 C17.67 1.32 17.34 2.64 17 4 C16.34 4 15.68 4 15 4 C14.731875 4.763125 14.46375 5.52625 14.1875 6.3125 C13.05575888 8.87380884 12.08776599 10.19692938 10 12 C9.11293529 8.8952735 9 6.26279529 9 3 C6.03 2.67 3.06 2.34 0 2 C0 1.34 0 0.68 0 0 Z " fill="#1394B3" transform="translate(426,306)"/>
<path d="M0 0 C1 2 1 2 -0.0625 5.25 C-1.92235272 9.27266788 -4.31385332 12.48594604 -8 15 C-11.875 15.875 -11.875 15.875 -15 16 C-15 16.66 -15 17.32 -15 18 C-17.31 18.33 -19.62 18.66 -22 19 C-19.27698513 16.27698513 -16.40091772 14.82192021 -13 13 C-12.34 13 -11.68 13 -11 13 C-11 12.34 -11 11.68 -11 11 C-9.35546875 9.4140625 -9.35546875 9.4140625 -7.1875 7.625 C-4.35520187 5.2828081 -2.10737561 3.01813415 0 0 Z " fill="#0E8FAA" transform="translate(355,229)"/>
<path d="M0 0 C0.66 0.33 1.32 0.66 2 1 C0.75 3.9375 0.75 3.9375 -1 7 C-3.0625 7.8125 -3.0625 7.8125 -5 8 C-7.13701805 8.79936642 -7.13701805 8.79936642 -7.75 10.75 C-9.59974893 14.07954808 -11.92681379 15.74214891 -15 18 C-15.99 18 -16.98 18 -18 18 C-16.60249952 14.84164893 -14.94801766 12.67727175 -12.5 10.25 C-11.8915625 9.63640625 -11.283125 9.0228125 -10.65625 8.390625 C-9 7 -9 7 -7 7 C-7 6.34 -7 5.68 -7 5 C-5.46875 3.7109375 -5.46875 3.7109375 -3.5 2.375 C-2.8503125 1.92898437 -2.200625 1.48296875 -1.53125 1.0234375 C-1.0259375 0.68570313 -0.520625 0.34796875 0 0 Z " fill="#108299" transform="translate(143,151)"/>
<path d="M0 0 C-0.51537952 7.13393752 -1.44005901 14.01812817 -3 21 C-3.33 21 -3.66 21 -4 21 C-4.20373408 14.58237641 -3.58069904 9.22400247 -2 3 C-7.94 3 -13.88 3 -20 3 C-20 2.34 -20 1.68 -20 1 C-16.85418896 0.83291073 -13.7083476 0.66639937 -10.5625 0.5 C-9.66466797 0.45230469 -8.76683594 0.40460938 -7.84179688 0.35546875 C-6.98779297 0.31035156 -6.13378906 0.26523437 -5.25390625 0.21875 C-4.46314697 0.17685547 -3.6723877 0.13496094 -2.85766602 0.09179688 C-1.90578081 0.04475931 -0.95304668 0 0 0 Z " fill="#187F97" transform="translate(329,306)"/>
<path d="M0 0 C0.33 0.66 0.66 1.32 1 2 C2.92280632 2.43214112 2.92280632 2.43214112 5.1875 2.5625 C8.83070287 2.88840952 12.39676262 3.35326509 16 4 C16 4.66 16 5.32 16 6 C15.01 5.97679687 14.02 5.95359375 13 5.9296875 C6.0475848 5.81523721 -0.32554718 5.81563362 -7 8 C-8.7325 8.556875 -8.7325 8.556875 -10.5 9.125 C-11.325 9.41375 -12.15 9.7025 -13 10 C-13 9.01 -13 8.02 -13 7 C-11.35 7 -9.7 7 -8 7 C-8 6.34 -8 5.68 -8 5 C-6.02 4.34 -4.04 3.68 -2 3 C-2 2.34 -2 1.68 -2 1 C-1.34 0.67 -0.68 0.34 0 0 Z " fill="#1184A2" transform="translate(326,170)"/>
<path d="M0 0 C2.55859051 2.55859051 2.37012943 3.8834715 2.625 7.4375 C2.69976562 8.40558594 2.77453125 9.37367188 2.8515625 10.37109375 C2.95737356 12.24506326 3 14.12304563 3 16 C1.35 16 -0.3 16 -2 16 C-2.33 18.64 -2.66 21.28 -3 24 C-3.33 24 -3.66 24 -4 24 C-3.28621973 15.86290495 -1.67226118 7.98268072 0 0 Z " fill="#108BAD" transform="translate(211,328)"/>
<path d="M0 0 C1.9765625 0.0234375 1.9765625 0.0234375 4.625 0.375 C15.03987803 1.46254869 25.54202966 1.0824561 36 1 C36 1.33 36 1.66 36 2 C31.84242474 2.7846834 27.91236076 3.12834605 23.68359375 3.1328125 C22.50732422 3.13410156 21.33105469 3.13539063 20.11914062 3.13671875 C18.90419922 3.13285156 17.68925781 3.12898438 16.4375 3.125 C15.21869141 3.12886719 13.99988281 3.13273437 12.74414062 3.13671875 C11.56916016 3.13542969 10.39417969 3.13414062 9.18359375 3.1328125 C7.58342407 3.13112061 7.58342407 3.13112061 5.95092773 3.12939453 C3.19016353 3.00833844 0.68677229 2.62506173 -2 2 C-1.34 1.34 -0.68 0.68 0 0 Z " fill="#177C9A" transform="translate(300,281)"/>
<path d="M0 0 C0.33 0.66 0.66 1.32 1 2 C0.0022242 4.99332739 -0.7522025 5.94766315 -3 8 C-2.34 8.33 -1.68 8.66 -1 9 C-3.97 9.66 -6.94 10.32 -10 11 C-10 11.66 -10 12.32 -10 13 C-12.64 13.33 -15.28 13.66 -18 14 C-15.97262291 11.97262291 -14.35040753 11.09237419 -11.8125 9.8125 C-7.05274303 7.24007471 -3.59138746 4.00711077 0 0 Z " fill="#11809C" transform="translate(206,234)"/>
<path d="M0 0 C4 1.33333333 8 2.66666667 12 4 C17.7510492 4.34184558 23.33371064 3.98544163 29 3 C28.01 4.485 28.01 4.485 27 6 C25.0480957 6.37231445 25.0480957 6.37231445 22.67578125 6.36328125 C21.37930664 6.36231445 21.37930664 6.36231445 20.05664062 6.36132812 C18.69829102 6.3371582 18.69829102 6.3371582 17.3125 6.3125 C16.42626953 6.31572266 15.54003906 6.31894531 14.62695312 6.32226562 C9.37650905 6.2795159 4.96838588 5.70597108 0 4 C0 2.68 0 1.36 0 0 Z " fill="#1A97BA" transform="translate(304,245)"/>
<path d="M0 0 C1.109375 1.765625 1.109375 1.765625 2 4 C1.390625 5.859375 1.390625 5.859375 0.25 7.75 C-3.45792943 14.50417448 -4.33130822 21.39803034 -5 29 C-5.33 29 -5.66 29 -6 29 C-6.08685287 25.70849875 -6.14033895 22.4172904 -6.1875 19.125 C-6.21263672 18.18785156 -6.23777344 17.25070313 -6.26367188 16.28515625 C-6.27333984 15.38925781 -6.28300781 14.49335938 -6.29296875 13.5703125 C-6.3086792 12.74289551 -6.32438965 11.91547852 -6.34057617 11.06298828 C-6.22818604 10.38220215 -6.1157959 9.70141602 -6 9 C-5.01 8.34 -4.02 7.68 -3 7 C-2.67 6.01 -2.34 5.02 -2 4 C-1.34 4 -0.68 4 0 4 C0 2.68 0 1.36 0 0 Z " fill="#0F728B" transform="translate(295,193)"/>
<path d="M0 0 C2.48952969 3.73429453 2.00544725 4.80670017 1.25 9.125 C1.05148437 10.28644531 0.85296875 11.44789063 0.6484375 12.64453125 C0.1181377 15.388673 -0.47082148 18.096237 -1.125 20.8125 C-2.10721879 24.95623552 -2.15452305 28.7506162 -2 33 C-2.66 33 -3.32 33 -4 33 C-4.24693223 25.13932402 -3.96687701 17.65215653 -2 10 C-1.67 9.67 -1.34 9.34 -1 9 C-0.76807135 7.48530552 -0.58784762 5.96245438 -0.4375 4.4375 C-0.35371094 3.61121094 -0.26992188 2.78492188 -0.18359375 1.93359375 C-0.12300781 1.29550781 -0.06242187 0.65742188 0 0 Z " fill="#15809A" transform="translate(323,326)"/>
<path d="M0 0 C0.33 0.66 0.66 1.32 1 2 C7.6 2 14.2 2 21 2 C21 2.66 21 3.32 21 4 C13.41 4 5.82 4 -2 4 C-1.34 2.68 -0.68 1.36 0 0 Z " fill="#1392A9" transform="translate(203,374)"/>
<path d="M0 0 C0.66 0.33 1.32 0.66 2 1 C1.48400816 8.8822202 -0.0921453 16.34458305 -2 24 C-2.33 24 -2.66 24 -3 24 C-3.38063221 21.6739143 -3.71269945 19.33944736 -4 17 C-3.67 16.67 -3.34 16.34 -3 16 C-3.020625 14.88625 -3.04125 13.7725 -3.0625 12.625 C-3 9 -3 9 -1 6 C-0.60986284 4.0103005 -0.26797351 2.00980131 0 0 Z " fill="#15789B" transform="translate(229,345)"/>
<path d="M0 0 C0.66 0 1.32 0 2 0 C2.53394179 1.4117783 3.05165104 2.82970244 3.5625 4.25 C3.85253906 5.03890625 4.14257812 5.8278125 4.44140625 6.640625 C5.05508807 9.23267967 5.0712586 10.56678952 4 13 C3.01 13.33 2.02 13.66 1 14 C1 13.01 1 12.02 1 11 C0.34 10.67 -0.32 10.34 -1 10 C-0.67 6.7 -0.34 3.4 0 0 Z " fill="#0E99BC" transform="translate(403,312)"/>
<path d="M0 0 C1.32 0.66 2.64 1.32 4 2 C4 2.66 4 3.32 4 4 C5.32 4.33 6.64 4.66 8 5 C8 5.66 8 6.32 8 7 C10.31 7 12.62 7 15 7 C14.67 7.66 14.34 8.32 14 9 C7.27494919 8.83560987 3.78944649 7.78944649 -1 3 C-0.67 2.01 -0.34 1.02 0 0 Z " fill="#0F879F" transform="translate(303,371)"/>
<path d="M0 0 C0.66 0.33 1.32 0.66 2 1 C1.34 2.65 0.68 4.3 0 6 C-0.66 6 -1.32 6 -2 6 C-2 6.66 -2 7.32 -2 8 C-2.66 8 -3.32 8 -4 8 C-4 8.66 -4 9.32 -4 10 C-4.66 10 -5.32 10 -6 10 C-6 10.66 -6 11.32 -6 12 C-6.66 12 -7.32 12 -8 12 C-8.33 12.66 -8.66 13.32 -9 14 C-9 12.02 -9 10.04 -9 8 C-8.34 8 -7.68 8 -7 8 C-7 7.34 -7 6.68 -7 6 C-6.01 6 -5.02 6 -4 6 C-3.67 4.68 -3.34 3.36 -3 2 C-2.01 2 -1.02 2 0 2 C0 1.34 0 0.68 0 0 Z " fill="#0C7E98" transform="translate(385,248)"/>
<path d="M0 0 C0.33 0 0.66 0 1 0 C1.14370117 4.09548345 1.20196534 7.29985348 0.0625 11.25 C-1.40945965 16.44515169 -1.66475517 21.62726057 -2 27 C-2.99 27 -3.98 27 -5 27 C-3.7144018 17.89493982 -2.01705777 8.96918357 0 0 Z " fill="#187C92" transform="translate(219,289)"/>
<path d="M0 0 C2.475 0.495 2.475 0.495 5 1 C5.33 1.99 5.66 2.98 6 4 C6.99 3.67 7.98 3.34 9 3 C9.66 3.66 10.32 4.32 11 5 C12.31747324 5.69748583 13.64914193 6.36959957 15 7 C12 9 12 9 8 9 C8 8.34 8 7.68 8 7 C7.34 7 6.68 7 6 7 C6 6.34 6 5.68 6 5 C5.34 5 4.68 5 4 5 C4 4.34 4 3.68 4 3 C3.34 3 2.68 3 2 3 C2 2.34 2 1.68 2 1 C1.34 0.67 0.68 0.34 0 0 Z " fill="#117896" transform="translate(207,180)"/>
<path d="M0 0 C4.875 0.875 4.875 0.875 6 2 C6.04063832 3.66617115 6.042721 5.33388095 6 7 C8.31309705 6.88658363 10.62550185 6.75896193 12.9375 6.625 C14.22527344 6.55539062 15.51304687 6.48578125 16.83984375 6.4140625 C17.88269531 6.27742188 18.92554688 6.14078125 20 6 C20.33 5.34 20.66 4.68 21 4 C23.0625 3.375 23.0625 3.375 25 3 C24.67 4.65 24.34 6.3 24 8 C17.73 8 11.46 8 5 8 C5 6.35 5 4.7 5 3 C4.34 3 3.68 3 3 3 C3 2.34 3 1.68 3 1 C2.01 0.67 1.02 0.34 0 0 Z " fill="#0A7C91" transform="translate(333,370)"/>
<path d="M0 0 C0.33 0 0.66 0 1 0 C2.12727273 7.26464646 2.12727273 7.26464646 1.4375 11.25 C0.94873197 14.32225619 1.32753685 15.44211519 3 18 C-0.75 19.125 -0.75 19.125 -3 18 C-2.01 12.06 -1.02 6.12 0 0 Z " fill="#1182A1" transform="translate(307,310)"/>
<path d="M0 0 C0.33 0.66 0.66 1.32 1 2 C0.01 2.495 0.01 2.495 -1 3 C-1 4.65 -1 6.3 -1 8 C-1.99 8.495 -1.99 8.495 -3 9 C-3.99 8.01 -4.98 7.02 -6 6 C-5.67 5.67 -5.34 5.34 -5 5 C-7.31 4.67 -9.62 4.34 -12 4 C-11.67 3.01 -11.34 2.02 -11 1 C-8.02148438 1.04882812 -8.02148438 1.04882812 -5.04296875 1.09765625 C-2.79694539 1.08263217 -2.79694539 1.08263217 0 0 Z " fill="#0B8BAB" transform="translate(334,359)"/>
<path d="M0 0 C0.66 0.33 1.32 0.66 2 1 C1.67 2.32 1.34 3.64 1 5 C2.65 5.33 4.3 5.66 6 6 C6 6.33 6 6.66 6 7 C1.71 7 -2.58 7 -7 7 C-6.67 5.68 -6.34 4.36 -6 3 C-5.195625 2.87625 -4.39125 2.7525 -3.5625 2.625 C-2.716875 2.41875 -1.87125 2.2125 -1 2 C-0.67 1.34 -0.34 0.68 0 0 Z " fill="#0FA9CA" transform="translate(372,370)"/>
<path d="M0 0 C0.66 0.33 1.32 0.66 2 1 C-0.08689011 5.0639439 -1.94364594 6.92235524 -6 9 C-6.763125 9.391875 -7.52625 9.78375 -8.3125 10.1875 C-8.869375 10.455625 -9.42625 10.72375 -10 11 C-10 11.66 -10 12.32 -10 13 C-10.99 13.33 -11.98 13.66 -13 14 C-13 13.34 -13 12.68 -13 12 C-12.34 12 -11.68 12 -11 12 C-11 11.34 -11 10.68 -11 10 C-10.34 10 -9.68 10 -9 10 C-9 9.34 -9 8.68 -9 8 C-8.34 8 -7.68 8 -7 8 C-7 7.34 -7 6.68 -7 6 C-6.34 6 -5.68 6 -5 6 C-5 5.34 -5 4.68 -5 4 C-4.34 4 -3.68 4 -3 4 C-3 3.34 -3 2.68 -3 2 C-2.01 1.34 -1.02 0.68 0 0 Z " fill="#13758E" transform="translate(281,158)"/>
<path d="M0 0 C0.66 1.32 1.32 2.64 2 4 C2.53625 5.03125 3.0725 6.0625 3.625 7.125 C5 10 5 10 5 12 C5.66 12 6.32 12 7 12 C7 12.66 7 13.32 7 14 C7.66 14 8.32 14 9 14 C8.67 14.66 8.34 15.32 8 16 C4.48144841 14.59257936 3.61387166 13.33533477 2 10 C1.01 9.67 0.02 9.34 -1 9 C-0.67 6.03 -0.34 3.06 0 0 Z M-2 10 C0 11 0 11 0 11 Z " fill="#12819A" transform="translate(290,226)"/>
<path d="M0 0 C0.99 0 1.98 0 3 0 C3.66 0.66 4.32 1.32 5 2 C4.61233695 5.58588324 3.41433748 8.69987921 2 12 C1.67 12 1.34 12 1 12 C1 10.35 1 8.7 1 7 C0.34 7 -0.32 7 -1 7 C-0.67 4.69 -0.34 2.38 0 0 Z " fill="#0A89A8" transform="translate(145,195)"/>
<path d="M0 0 C-0.33 2.97 -0.66 5.94 -1 9 C-1.33 9 -1.66 9 -2 9 C-2.33 7.02 -2.66 5.04 -3 3 C-8.61 2.67 -14.22 2.34 -20 2 C-20 1.67 -20 1.34 -20 1 C-6.3667426 -0.14806378 -6.3667426 -0.14806378 0 0 Z " fill="#1391B2" transform="translate(276,283)"/>
<path d="M0 0 C5.1103144 1.1454153 9.37234081 2.45478745 14 5 C14 5.33 14 5.66 14 6 C11.36 6 8.72 6 6 6 C5.67 5.01 5.34 4.02 5 3 C3.35 2.67 1.7 2.34 0 2 C0 1.34 0 0.68 0 0 Z " fill="#117C96" transform="translate(359,142)"/>
<path d="M0 0 C2.35448165 2.55068845 2.98327924 3.71017358 3.1875 7.25 C3.125625 8.1575 3.06375 9.065 3 10 C3.99 10.33 4.98 10.66 6 11 C6 12.98 6 14.96 6 17 C5.34 17.33 4.68 17.66 4 18 C3.32873871 15.5636811 2.66283646 13.12611117 2 10.6875 C1.71382813 9.65206055 1.71382813 9.65206055 1.421875 8.59570312 C0.62283816 5.64212051 0 3.07440781 0 0 Z " fill="#117087" transform="translate(402,359)"/>
<path d="M0 0 C0.66 0 1.32 0 2 0 C2 1.32 2 2.64 2 4 C1.34 4 0.68 4 0 4 C-0.33 5.98 -0.66 7.96 -1 10 C-1.66 10 -2.32 10 -3 10 C-5 7 -5 7 -4.625 4.8125 C-4.41875 4.214375 -4.2125 3.61625 -4 3 C-3.01 3 -2.02 3 -1 3 C-0.67 2.01 -0.34 1.02 0 0 Z " fill="#049FC7" transform="translate(377,363)"/>
<path d="M0 0 C0.99 0 1.98 0 3 0 C2.03644647 9.41002278 2.03644647 9.41002278 1 14 C0.67 14 0.34 14 0 14 C0 11.36 0 8.72 0 6 C-0.66 5.67 -1.32 5.34 -2 5 C-1.67 4.67 -1.34 4.34 -1 4 C-1 3.01 -1 2.02 -1 1 C-0.67 0.67 -0.34 0.34 0 0 Z " fill="#108AA9" transform="translate(236,304)"/>
<path d="M0 0 C2 1 2 1 2.8515625 3.28515625 C3.10679687 4.20167969 3.36203125 5.11820312 3.625 6.0625 C3.88539063 6.98160156 4.14578125 7.90070313 4.4140625 8.84765625 C4.60742188 9.55792969 4.80078125 10.26820313 5 11 C4.01 11.33 3.02 11.66 2 12 C1.34 11.34 0.68 10.68 0 10 C0.66 10 1.32 10 2 10 C1.67 9.01 1.34 8.02 1 7 C0.01 7 -0.98 7 -2 7 C-1.42415568 4.61435923 -0.77772405 2.33317216 0 0 Z " fill="#1680A5" transform="translate(426,366)"/>
<path d="M0 0 C0.99 1.32 1.98 2.64 3 4 C2.67 4.66 2.34 5.32 2 6 C1.01 6 0.02 6 -1 6 C-2.02019573 6.9793879 -3.02149805 7.97895449 -4 9 C-4.66 9 -5.32 9 -6 9 C-4.47291037 5.56404834 -2.40072955 2.88087546 0 0 Z " fill="#0B839E" transform="translate(422,306)"/>
<path d="M0 0 C2.64 0.66 5.28 1.32 8 2 C8 2.66 8 3.32 8 4 C8.99 4 9.98 4 11 4 C11 5.32 11 6.64 11 8 C8.525 7.01 8.525 7.01 6 6 C6 5.34 6 4.68 6 4 C5.195625 3.71125 4.39125 3.4225 3.5625 3.125 C1 2 1 2 0 0 Z " fill="#147B98" transform="translate(268,267)"/>
<path d="M0 0 C2.26273207 3.55818936 2.07331744 6.12547951 1.625 10.25 C1.51414062 11.32765625 1.40328125 12.4053125 1.2890625 13.515625 C1.19367188 14.33546875 1.09828125 15.1553125 1 16 C0.34 15.67 -0.32 15.34 -1 15 C-2.3864587 9.33862697 -1.62227918 5.43940666 0 0 Z " fill="#098BAB" transform="translate(109,229)"/>
<path d="M0 0 C-1.3125 1.9375 -1.3125 1.9375 -4 4 C-7.65582511 4.6575225 -11.29108788 4.87210648 -15 5 C-12.23124172 2.74959373 -9.76303909 1.36046097 -6.375 0.25 C-5.59898437 -0.01296875 -4.82296875 -0.2759375 -4.0234375 -0.546875 C-2 -1 -2 -1 0 0 Z " fill="#10758D" transform="translate(313,143)"/>
<path d="M0 0 C10.395 0.99 10.395 0.99 21 2 C17.55892734 4.29404844 16.03160191 4.26293056 12 4 C11.67 3.67 11.34 3.34 11 3 C9.15400312 2.60545777 7.29774178 2.25823134 5.4375 1.9375 C3.91962891 1.67259766 3.91962891 1.67259766 2.37109375 1.40234375 C1.58863281 1.26957031 0.80617187 1.13679687 0 1 C0 0.67 0 0.34 0 0 Z " fill="#13697E" transform="translate(186,137)"/>
<path d="M0 0 C0.66 0.99 1.32 1.98 2 3 C-0.69770258 4.34885129 -2.65273375 4.01578483 -5.6640625 3.87890625 C-6.78554687 3.83056641 -7.90703125 3.78222656 -9.0625 3.73242188 C-10.8259375 3.64831055 -10.8259375 3.64831055 -12.625 3.5625 C-14.40003906 3.48418945 -14.40003906 3.48418945 -16.2109375 3.40429688 C-19.14087561 3.27433994 -22.07049673 3.13936472 -25 3 C-25 2.67 -25 2.34 -25 2 C-16.75 2 -8.5 2 0 2 C0 1.34 0 0.68 0 0 Z " fill="#207186" transform="translate(253,197)"/>
<path d="M0 0 C0 0.33 0 0.66 0 1 C-1.89385437 1.50744423 -3.79018666 2.00564574 -5.6875 2.5 C-6.74324219 2.7784375 -7.79898438 3.056875 -8.88671875 3.34375 C-11.71142672 3.9391715 -14.12836708 4.12786492 -17 4 C-17 3.01 -17 2.02 -17 1 C-11.29014022 0.25983299 -5.75813575 -0.10469338 0 0 Z " fill="#1585A0" transform="translate(251,179)"/>
<path d="M0 0 C5.17930997 1.24303439 8.70166639 2.85487785 13 6 C11 7 11 7 7.9609375 6.00390625 C6.77757812 5.52824219 5.59421875 5.05257813 4.375 4.5625 C3.18648438 4.08941406 1.99796875 3.61632812 0.7734375 3.12890625 C-0.14179688 2.75636719 -1.05703125 2.38382812 -2 2 C-1.34 1.34 -0.68 0.68 0 0 Z " fill="#117390" transform="translate(283,275)"/>
<path d="M0 0 C0.33 0 0.66 0 1 0 C0.48446121 6.49850211 -0.46667709 12.66226532 -2 19 C-2.33 19 -2.66 19 -3 19 C-2.88573491 16.58239124 -2.75900339 14.16652782 -2.625 11.75 C-2.5940625 11.06808594 -2.563125 10.38617188 -2.53125 9.68359375 C-2.31740626 6.01260962 -1.98922945 3.13748384 0 0 Z " fill="#136881" transform="translate(368,317)"/>
<path d="M0 0 C0.66 0.99 1.32 1.98 2 3 C1.67 3.33 1.34 3.66 1 4 C1.61875 4.28875 2.2375 4.5775 2.875 4.875 C5 6 5 6 7 8 C2.6822542 7.49202991 -1.03302114 6.80317221 -5 5 C-3.35 3.35 -1.7 1.7 0 0 Z " fill="#0F81A2" transform="translate(147,274)"/>
<path d="M0 0 C1.32 0.33 2.64 0.66 4 1 C4.33 2.65 4.66 4.3 5 6 C2.525 7.485 2.525 7.485 0 9 C0 6.03 0 3.06 0 0 Z " fill="#0888AB" transform="translate(305,177)"/>
<path d="M0 0 C0.66 0.33 1.32 0.66 2 1 C1.01 2.98 0.02 4.96 -1 7 C-2.98 7 -4.96 7 -7 7 C-7 6.34 -7 5.68 -7 5 C-5.46875 3.7109375 -5.46875 3.7109375 -3.5 2.375 C-2.8503125 1.92898437 -2.200625 1.48296875 -1.53125 1.0234375 C-1.0259375 0.68570313 -0.520625 0.34796875 0 0 Z " fill="#0D7393" transform="translate(143,151)"/>
<path d="M0 0 C0.66 0.33 1.32 0.66 2 1 C1.505 2.11375 1.01 3.2275 0.5 4.375 C-1.1274506 7.65415749 -1.1274506 7.65415749 -1 10 C-2.65 10 -4.3 10 -6 10 C-4.34832443 6.4213696 -2.21713508 3.25179812 0 0 Z " fill="#10788D" transform="translate(373,363)"/>
<path d="M0 0 C0 0.66 0 1.32 0 2 C-5.29411765 6 -5.29411765 6 -9 6 C-9 4.68 -9 3.36 -9 2 C-2.25 0 -2.25 0 0 0 Z " fill="#14849A" transform="translate(371,265)"/>
<path d="M0 0 C4.95 0.33 9.9 0.66 15 1 C14.67 1.66 14.34 2.32 14 3 C8.78020872 3.1799928 4.92737019 2.97094808 0 1 C0 0.67 0 0.34 0 0 Z " fill="#177E9C" transform="translate(166,248)"/>
<path d="M0 0 C0.99 0.33 1.98 0.66 3 1 C1.515 7.435 1.515 7.435 0 14 C-0.33 14 -0.66 14 -1 14 C-1.02705729 12.22925083 -1.04642195 10.45838289 -1.0625 8.6875 C-1.07410156 7.70136719 -1.08570313 6.71523438 -1.09765625 5.69921875 C-1 3 -1 3 0 0 Z " fill="#118CAD" transform="translate(280,293)"/>
<path d="M0 0 C1.43931117 0.45261358 2.87638999 0.91232979 4.3125 1.375 C5.11300781 1.63023437 5.91351563 1.88546875 6.73828125 2.1484375 C9 3 9 3 12 5 C7.48281619 6.36884358 4.41225737 5.47075246 0 4 C0 2.68 0 1.36 0 0 Z " fill="#107793" transform="translate(304,245)"/>
<path d="M0 0 C1.62715156 0.95467564 3.25165346 1.91386848 4.875 2.875 C5.77992188 3.40867188 6.68484375 3.94234375 7.6171875 4.4921875 C10 6 10 6 12 8 C10.35 8 8.7 8 7 8 C7 7.34 7 6.68 7 6 C5.824375 5.7834375 5.824375 5.7834375 4.625 5.5625 C2 5 2 5 0 4 C0 2.68 0 1.36 0 0 Z " fill="#116D8A" transform="translate(154,240)"/>
<path d="M0 0 C0.125 7.75 0.125 7.75 -1 10 C-1.66 10 -2.32 10 -3 10 C-3 7.03 -3 4.06 -3 1 C-1 0 -1 0 0 0 Z " fill="#069FCC" transform="translate(285,362)"/>
<path d="M0 0 C0.99 0 1.98 0 3 0 C3 3 3 3 1.6875 4.38671875 C0.125 5.59114583 -1.4375 6.79557292 -3 8 C-3.66 7.67 -4.32 7.34 -5 7 C-4.24172908 5.82512964 -3.46792245 4.66027408 -2.6875 3.5 C-2.25824219 2.8503125 -1.82898438 2.200625 -1.38671875 1.53125 C-0.70029297 0.77328125 -0.70029297 0.77328125 0 0 Z " fill="#0D86A1" transform="translate(382,352)"/>
<path d="M0 0 C0.66 0 1.32 0 2 0 C1.44687265 4.02992782 0.8441938 8.02022924 0 12 C-0.66 12 -1.32 12 -2 12 C-1.85904936 10.3745692 -1.71207913 8.74965949 -1.5625 7.125 C-1.48128906 6.22007812 -1.40007812 5.31515625 -1.31640625 4.3828125 C-1 2 -1 2 0 0 Z " fill="#1587A6" transform="translate(271,340)"/>
<path d="M0 0 C2 2 2 2 2.25 5.375 C2.02515633 8.63523324 1.7239511 10.30632641 0 13 C-0.98248196 8.94726192 -1.16017882 5.16464926 -1 1 C-0.67 0.67 -0.34 0.34 0 0 Z " fill="#137F9A" transform="translate(291,330)"/>
<path d="M0 0 C1.65 0 3.3 0 5 0 C3.8141763 3.37503669 2.72426311 5.64722731 0 8 C-0.98120464 4.94736336 -0.98120464 3.05263664 0 0 Z " fill="#0C8298" transform="translate(436,310)"/>
<path d="M0 0 C1.65 0 3.3 0 5 0 C5.33 1.32 5.66 2.64 6 4 C5.34 4 4.68 4 4 4 C4 4.99 4 5.98 4 7 C3.34 7 2.68 7 2 7 C1.34 4.69 0.68 2.38 0 0 Z " fill="#198AAC" transform="translate(378,306)"/>
<path d="M0 0 C0.99 0.33 1.98 0.66 3 1 C1.55746343 4.36591866 -0.33264727 6.51047079 -3 9 C-3 7.35 -3 5.7 -3 4 C-2.01 3.67 -1.02 3.34 0 3 C0 2.01 0 1.02 0 0 Z " fill="#0E8097" transform="translate(238,247)"/>
<path d="M0 0 C0.91058531 3.07322544 1.08886184 5.80097361 1 9 C0.01 9 -0.98 9 -2 9 C-2 9.66 -2 10.32 -2 11 C-2.66 11 -3.32 11 -4 11 C-3.39301257 6.87248551 -1.96189209 3.6678852 0 0 Z " fill="#0F7085" transform="translate(115,181)"/>
<path d="M0 0 C4.8991349 1.29977048 9.37559575 2.92373687 14 5 C13.67 5.66 13.34 6.32 13 7 C10.36 6.01 7.72 5.02 5 4 C5 3.34 5 2.68 5 2 C3.35 2 1.7 2 0 2 C0 1.34 0 0.68 0 0 Z " fill="#106A82" transform="translate(214,142)"/>
<path d="M0 0 C0.33 0.66 0.66 1.32 1 2 C1.66 2 2.32 2 3 2 C3 3.65 3 5.3 3 7 C3.66 7 4.32 7 5 7 C4.67 8.65 4.34 10.3 4 12 C1.57869669 9.57869669 1.47159496 8.19888623 0.875 4.875 C0.70742187 3.96492187 0.53984375 3.05484375 0.3671875 2.1171875 C0.24601563 1.41851562 0.12484375 0.71984375 0 0 Z " fill="#157590" transform="translate(250,236)"/>
<path d="M0 0 C0 3 0 3 -1 6 C-3.0625 6.6875 -3.0625 6.6875 -5 7 C-5 7.66 -5 8.32 -5 9 C-6.32 8.67 -7.64 8.34 -9 8 C-8.34 8 -7.68 8 -7 8 C-7 7.34 -7 6.68 -7 6 C-5.46875 4.4921875 -5.46875 4.4921875 -3.5 2.875 C-2.8503125 2.33617187 -2.200625 1.79734375 -1.53125 1.2421875 C-0.77328125 0.62730469 -0.77328125 0.62730469 0 0 Z " fill="#0F6C83" transform="translate(351,234)"/>
<path d="M0 0 C-0.53069061 3.82097239 -1.49701566 6.06171403 -4 9 C-4.33 6.69 -4.66 4.38 -5 2 C-2 0 -2 0 0 0 Z " fill="#0F89A5" transform="translate(247,236)"/>
<path d="M0 0 C0.33 0 0.66 0 1 0 C0.67 4.62 0.34 9.24 0 14 C-2 12 -2 12 -2.25 8.6875 C-2.01863452 5.27485916 -1.4765288 3.04534065 0 0 Z " fill="#188DAD" transform="translate(145,207)"/>
<path d="M0 0 C1.89213369 2.38573379 3.02391783 4.07175348 4 7 C3.67 7.99 3.34 8.98 3 10 C1.68 9.34 0.36 8.68 -1 8 C-1 7.34 -1 6.68 -1 6 C-0.34 6 0.32 6 1 6 C0.67 4.02 0.34 2.04 0 0 Z " fill="#0B87A8" transform="translate(147,230)"/>
<path d="M0 0 C-0.75 4.75 -0.75 4.75 -3 7 C-5 4 -5 4 -5 1 C-3 0 -3 0 0 0 Z " fill="#12819D" transform="translate(109,174)"/>
<path d="M0 0 C0 0.66 0 1.32 0 2 C-4.95 1.67 -9.9 1.34 -15 1 C-15 0.67 -15 0.34 -15 0 C-9.76528314 -0.75612577 -5.22745859 -1.2063366 0 0 Z " fill="#177491" transform="translate(342,174)"/>
<path d="M0 0 C0.33 0 0.66 0 1 0 C1.33 2.97 1.66 5.94 2 9 C2.66 9 3.32 9 4 9 C3.34 10.32 2.68 11.64 2 13 C1.01 13 0.02 13 -1 13 C-0.67 8.71 -0.34 4.42 0 0 Z " fill="#066983" transform="translate(363,202)"/>
<path d="M0 0 C0.66 0 1.32 0 2 0 C2 1.98 2 3.96 2 6 C0.35 6.33 -1.3 6.66 -3 7 C-1.125 1.125 -1.125 1.125 0 0 Z " fill="#138BA5" transform="translate(14,196)"/>
<path d="M0 0 C0.33 1.32 0.66 2.64 1 4 C-0.32 4.99 -1.64 5.98 -3 7 C-4 6 -4 6 -4.0625 3.4375 C-4.041875 2.633125 -4.02125 1.82875 -4 1 C-2 0 -2 0 0 0 Z " fill="#098AA4" transform="translate(302,185)"/>
<path d="M0 0 C-3.00440021 2.00293347 -4.70993945 2.49271626 -8.1875 3.125 C-9.53908203 3.37636719 -9.53908203 3.37636719 -10.91796875 3.6328125 C-11.60503906 3.75398437 -12.29210937 3.87515625 -13 4 C-11 1 -11 1 -9.3125 0.3125 C-6.19641489 -0.10859258 -3.13969957 -0.06037884 0 0 Z " fill="#156F85" transform="translate(183,174)"/>
<path d="M0 0 C0.66 0.33 1.32 0.66 2 1 C1.67 4.3 1.34 7.6 1 11 C-0.32 10.34 -1.64 9.68 -3 9 C-2.34 8.01 -1.68 7.02 -1 6 C-0.60986284 4.0103005 -0.26797351 2.00980131 0 0 Z " fill="#0B7C97" transform="translate(229,345)"/>
<path d="M0 0 C0.33 0.66 0.66 1.32 1 2 C1.66 2 2.32 2 3 2 C4.625 4 4.625 4 6 6 C5.67 6.66 5.34 7.32 5 8 C3.68 7.67 2.36 7.34 1 7 C0.67 4.69 0.34 2.38 0 0 Z " fill="#0E6C81" transform="translate(241,158)"/>
<path d="M0 0 C5.78461538 4.43076923 5.78461538 4.43076923 6.875 7.3125 C6.936875 8.1478125 6.936875 8.1478125 7 9 C2.97449681 7.6581656 2.11714364 5.5772427 0 2 C0 1.34 0 0.68 0 0 Z " fill="#127187" transform="translate(383,155)"/>
<path d="M0 0 C1.32 0.33 2.64 0.66 4 1 C4 1.66 4 2.32 4 3 C6.475 3.99 6.475 3.99 9 5 C9 5.99 9 6.98 9 8 C7.68 7.34 6.36 6.68 5 6 C5 5.34 5 4.68 5 4 C2.525 3.01 2.525 3.01 0 2 C0 1.34 0 0.68 0 0 Z " fill="#167287" transform="translate(373,148)"/>
<path d="M0 0 C0.66 0.66 1.32 1.32 2 2 C1.625 4.625 1.625 4.625 1 7 C0.01 7 -0.98 7 -2 7 C-2 5.02 -2 3.04 -2 1 C-1.34 0.67 -0.68 0.34 0 0 Z " fill="#0BA3CB" transform="translate(364,329)"/>
<path d="M0 0 C0.66 0.33 1.32 0.66 2 1 C1.34 2.65 0.68 4.3 0 6 C-0.66 6 -1.32 6 -2 6 C-2.33 6.66 -2.66 7.32 -3 8 C-3 6.02 -3 4.04 -3 2 C-2.01 2 -1.02 2 0 2 C0 1.34 0 0.68 0 0 Z " fill="#106984" transform="translate(385,248)"/>
<path d="M0 0 C0.66 0 1.32 0 2 0 C2 0.99 2 1.98 2 3 C2.99 3.33 3.98 3.66 5 4 C5.33 4.99 5.66 5.98 6 7 C5.67 7.66 5.34 8.32 5 9 C4.34 9 3.68 9 3 9 C2.01 6.03 1.02 3.06 0 0 Z " fill="#0E778D" transform="translate(359,189)"/>
<path d="M0 0 C0.66 0.66 1.32 1.32 2 2 C1.75 5.5625 1.75 5.5625 1 9 C0.01 9.495 0.01 9.495 -1 10 C-0.67 6.7 -0.34 3.4 0 0 Z " fill="#1683A1" transform="translate(213,318)"/>
<path d="M0 0 C0.33 0.66 0.66 1.32 1 2 C1.99 2.33 2.98 2.66 4 3 C3.67 3.66 3.34 4.32 3 5 C2.34 4.67 1.68 4.34 1 4 C0.67 5.32 0.34 6.64 0 8 C-0.66 7.67 -1.32 7.34 -2 7 C-1.34 4.69 -0.68 2.38 0 0 Z " fill="#107F9B" transform="translate(275,320)"/>
<path d="M0 0 C1.2065625 0.0309375 1.2065625 0.0309375 2.4375 0.0625 C1.38875002 2.68437494 0.78818687 3.85621361 -1.6875 5.3125 C-2.30625 5.56 -2.925 5.8075 -3.5625 6.0625 C-3.605221 4.39638095 -3.60313832 2.72867115 -3.5625 1.0625 C-2.5625 0.0625 -2.5625 0.0625 0 0 Z " fill="#169AB8" transform="translate(223.5625,282.9375)"/>
<path d="M0 0 C2.475 0.99 2.475 0.99 5 2 C3.35 3.32 1.7 4.64 0 6 C-1.125 2.25 -1.125 2.25 0 0 Z " fill="#0D7C9A" transform="translate(162,178)"/>
<path d="M0 0 C0.66 0.99 1.32 1.98 2 3 C1.01 4.485 1.01 4.485 0 6 C-0.66 6 -1.32 6 -2 6 C-2 6.66 -2 7.32 -2 8 C-2.99 7.67 -3.98 7.34 -5 7 C-3.35 4.69 -1.7 2.38 0 0 Z " fill="#15819C" transform="translate(389,343)"/>
<path d="M0 0 C0.66 1.32 1.32 2.64 2 4 C1.34 4 0.68 4 0 4 C-0.33 4.99 -0.66 5.98 -1 7 C-1.66 6.34 -2.32 5.68 -3 5 C-3 4.01 -3 3.02 -3 2 C-2.01 1.34 -1.02 0.68 0 0 Z " fill="#0B86A7" transform="translate(389,323)"/>
<path d="M0 0 C0.99 0.33 1.98 0.66 3 1 C1.625 3.5 1.625 3.5 0 6 C-0.66 6 -1.32 6 -2 6 C-1.125 1.125 -1.125 1.125 0 0 Z " fill="#1195B5" transform="translate(209,230)"/>
<path d="M0 0 C0.99 0 1.98 0 3 0 C2.67 2.97 2.34 5.94 2 9 C0.11656068 5.23312136 -0.22057835 3.97041037 0 0 Z " fill="#1384A7" transform="translate(362,337)"/>
<path d="M0 0 C2 2 2 2 2.125 5.125 C2.08375 6.07375 2.0425 7.0225 2 8 C1.01 8 0.02 8 -1 8 C-0.67 5.36 -0.34 2.72 0 0 Z " fill="#147A95" transform="translate(211,328)"/>
<path d="M0 0 C2 4 2 4 1.8125 6.1875 C1.4103125 7.0846875 1.4103125 7.0846875 1 8 C0.01 8.33 -0.98 8.66 -2 9 C-1.34 6.03 -0.68 3.06 0 0 Z " fill="#0E85A5" transform="translate(406,317)"/>
<path d="M0 0 C0.99 0.33 1.98 0.66 3 1 C2.67 4.3 2.34 7.6 2 11 C1.67 11 1.34 11 1 11 C0.67 7.37 0.34 3.74 0 0 Z " fill="#127691" transform="translate(295,309)"/>
<path d="M0 0 C2.475 0.495 2.475 0.495 5 1 C5 1.66 5 2.32 5 3 C6.32 3 7.64 3 9 3 C9 3.66 9 4.32 9 5 C5.22454612 3.90931332 2.52956528 3.0916909 0 0 Z " fill="#15798E" transform="translate(133,273)"/>
<path d="M0 0 C2.475 0.495 2.475 0.495 5 1 C5.33 2.65 5.66 4.3 6 6 C3.97945196 4.35830472 1.97956942 2.69088222 0 1 C0 0.67 0 0.34 0 0 Z M5 0 C7 1 7 1 7 1 Z " fill="#107087" transform="translate(352,181)"/>
<path d="M0 0 C0.763125 0.20625 1.52625 0.4125 2.3125 0.625 C2.6425 1.615 2.9725 2.605 3.3125 3.625 C-1.1425 2.635 -1.1425 2.635 -5.6875 1.625 C-2.6875 -0.375 -2.6875 -0.375 0 0 Z " fill="#11738D" transform="translate(197.6875,173.375)"/>
</svg>
